<svg width="1075" height="483" viewBox="0 0 1075 483" class="keymap" xmlns="http://www.w3.org/2000/svg" xmlns:xlink="http://www.w3.org/1999/xlink">
<defs>/* start glyphs */
<svg id="mdi:alpha-w-box">
<svg xmlns="http://www.w3.org/2000/svg" id="mdi-alpha-w-box" viewBox="0 0 24 24"><path d="M9,17H15A2,2 0 0,0 17,15V7H15V15H13V8H11V15H9V7H7V15A2,2 0 0,0 9,17M5,3H19A2,2 0 0,1 21,5V19A2,2 0 0,1 19,21H5A2,2 0 0,1 3,19V5A2,2 0 0,1 5,3Z" /></svg>
</svg>
<svg id="mdi:apple-keyboard-caps">
<svg xmlns="http://www.w3.org/2000/svg" id="mdi-apple-keyboard-caps" viewBox="0 0 24 24"><path d="M15,14V8H17.17L12,2.83L6.83,8H9V14H15M12,0L22,10H17V16H7V10H2L12,0M7,18H17V24H7V18M15,20H9V22H15V20Z" /></svg>
</svg>
<svg id="mdi:apple-keyboard-command">
<svg xmlns="http://www.w3.org/2000/svg" id="mdi-apple-keyboard-command" viewBox="0 0 24 24"><path d="M6,2A4,4 0 0,1 10,6V8H14V6A4,4 0 0,1 18,2A4,4 0 0,1 22,6A4,4 0 0,1 18,10H16V14H18A4,4 0 0,1 22,18A4,4 0 0,1 18,22A4,4 0 0,1 14,18V16H10V18A4,4 0 0,1 6,22A4,4 0 0,1 2,18A4,4 0 0,1 6,14H8V10H6A4,4 0 0,1 2,6A4,4 0 0,1 6,2M16,18A2,2 0 0,0 18,20A2,2 0 0,0 20,18A2,2 0 0,0 18,16H16V18M14,10H10V14H14V10M6,16A2,2 0 0,0 4,18A2,2 0 0,0 6,20A2,2 0 0,0 8,18V16H6M8,6A2,2 0 0,0 6,4A2,2 0 0,0 4,6A2,2 0 0,0 6,8H8V6M18,8A2,2 0 0,0 20,6A2,2 0 0,0 18,4A2,2 0 0,0 16,6V8H18Z" /></svg>
</svg>
<svg id="mdi:apple-keyboard-control">
<svg xmlns="http://www.w3.org/2000/svg" id="mdi-apple-keyboard-control" viewBox="0 0 24 24"><path d="M19.78,11.78L18.36,13.19L12,6.83L5.64,13.19L4.22,11.78L12,4L19.78,11.78Z" /></svg>
</svg>
<svg id="mdi:apple-keyboard-option">
<svg xmlns="http://www.w3.org/2000/svg" id="mdi-apple-keyboard-option" viewBox="0 0 24 24"><path d="M3,4H9.11L16.15,18H21V20H14.88L7.84,6H3V4M14,4H21V6H14V4Z" /></svg>
</svg>
<svg id="mdi:apple-keyboard-shift">
<svg xmlns="http://www.w3.org/2000/svg" id="mdi-apple-keyboard-shift" viewBox="0 0 24 24"><path d="M15,18V12H17.17L12,6.83L6.83,12H9V18H15M12,4L22,14H17V20H7V14H2L12,4Z" /></svg>
</svg>
<svg id="mdi:backspace">
<svg xmlns="http://www.w3.org/2000/svg" id="mdi-backspace" viewBox="0 0 24 24"><path d="M22,3H7C6.31,3 5.77,3.35 5.41,3.88L0,12L5.41,20.11C5.77,20.64 6.31,21 7,21H22A2,2 0 0,0 24,19V5A2,2 0 0,0 22,3M19,15.59L17.59,17L14,13.41L10.41,17L9,15.59L12.59,12L9,8.41L10.41,7L14,10.59L17.59,7L19,8.41L15.41,12" /></svg>
</svg>
<svg id="mdi:backspace-reverse-outline">
<svg xmlns="http://www.w3.org/2000/svg" id="mdi-backspace-reverse-outline" viewBox="0 0 24 24"><path d="M5,15.59L6.41,17L10,13.41L13.59,17L15,15.59L11.41,12L15,8.41L13.59,7L10,10.59L6.41,7L5,8.41L8.59,12L5,15.59M2,3A2,2 0 0,0 0,5V19A2,2 0 0,0 2,21H17C17.69,21 18.23,20.64 18.59,20.11L24,12L18.59,3.88C18.23,3.35 17.69,3 17,3H2M2,5H17L21.72,12L17,19H2V5Z" /></svg>
</svg>
<svg id="mdi:content-copy">
<svg xmlns="http://www.w3.org/2000/svg" id="mdi-content-copy" viewBox="0 0 24 24"><path d="M19,21H8V7H19M19,5H8A2,2 0 0,0 6,7V21A2,2 0 0,0 8,23H19A2,2 0 0,0 21,21V7A2,2 0 0,0 19,5M16,1H4A2,2 0 0,0 2,3V17H4V3H16V1Z" /></svg>
</svg>
<svg id="mdi:content-cut">
<svg xmlns="http://www.w3.org/2000/svg" id="mdi-content-cut" viewBox="0 0 24 24"><path d="M19,3L13,9L15,11L22,4V3M12,12.5A0.5,0.5 0 0,1 11.5,12A0.5,0.5 0 0,1 12,11.5A0.5,0.5 0 0,1 12.5,12A0.5,0.5 0 0,1 12,12.5M6,20A2,2 0 0,1 4,18C4,16.89 4.9,16 6,16A2,2 0 0,1 8,18C8,19.11 7.1,20 6,20M6,8A2,2 0 0,1 4,6C4,4.89 4.9,4 6,4A2,2 0 0,1 8,6C8,7.11 7.1,8 6,8M9.64,7.64C9.87,7.14 10,6.59 10,6A4,4 0 0,0 6,2A4,4 0 0,0 2,6A4,4 0 0,0 6,10C6.59,10 7.14,9.87 7.64,9.64L10,12L7.64,14.36C7.14,14.13 6.59,14 6,14A4,4 0 0,0 2,18A4,4 0 0,0 6,22A4,4 0 0,0 10,18C10,17.41 9.87,16.86 9.64,16.36L12,14L19,21H22V20L9.64,7.64Z" /></svg>
</svg>
<svg id="mdi:content-paste">
<svg xmlns="http://www.w3.org/2000/svg" id="mdi-content-paste" viewBox="0 0 24 24"><path d="M19,20H5V4H7V7H17V4H19M12,2A1,1 0 0,1 13,3A1,1 0 0,1 12,4A1,1 0 0,1 11,3A1,1 0 0,1 12,2M19,2H14.82C14.4,0.84 13.3,0 12,0C10.7,0 9.6,0.84 9.18,2H5A2,2 0 0,0 3,4V20A2,2 0 0,0 5,22H19A2,2 0 0,0 21,20V4A2,2 0 0,0 19,2Z" /></svg>
</svg>
<svg id="mdi:keyboard-esc">
<svg xmlns="http://www.w3.org/2000/svg" id="mdi-keyboard-esc" viewBox="0 0 24 24"><path d="M1 7H7V9H3V11H7V13H3V15H7V17H1V7M11 7H15V9H11V11H13C14.11 11 15 11.9 15 13V15C15 16.11 14.11 17 13 17H9V15H13V13H11C9.9 13 9 12.11 9 11V9C9 7.9 9.9 7 11 7M19 7H21C22.11 7 23 7.9 23 9V10H21V9H19V15H21V14H23V15C23 16.11 22.11 17 21 17H19C17.9 17 17 16.11 17 15V9C17 7.9 17.9 7 19 7Z" /></svg>
</svg>
<svg id="mdi:keyboard-return">
<svg xmlns="http://www.w3.org/2000/svg" id="mdi-keyboard-return" viewBox="0 0 24 24"><path d="M19,7V11H5.83L9.41,7.41L8,6L2,12L8,18L9.41,16.58L5.83,13H21V7H19Z" /></svg>
</svg>
<svg id="mdi:keyboard-space">
<svg xmlns="http://www.w3.org/2000/svg" id="mdi-keyboard-space" viewBox="0 0 24 24"><path d="M3 15H5V19H19V15H21V19C21 20.1 20.1 21 19 21H5C3.9 21 3 20.1 3 19V15Z" /></svg>
</svg>
<svg id="mdi:keyboard-tab">
<svg xmlns="http://www.w3.org/2000/svg" id="mdi-keyboard-tab" viewBox="0 0 24 24"><path d="M20,18H22V6H20M11.59,7.41L15.17,11H1V13H15.17L11.59,16.58L13,18L19,12L13,6L11.59,7.41Z" /></svg>
</svg>
<svg id="mdi:label-variant-outline">
<svg xmlns="http://www.w3.org/2000/svg" id="mdi-label-variant-outline" viewBox="0 0 24 24"><path d="M6.5,17H15L18.5,12L15,7H6.5L10,12L6.5,17M15,19H3L7.5,12L3,5H15C15.69,5 16.23,5.3 16.64,5.86L21,12L16.64,18.14C16.23,18.7 15.69,19 15,19Z" /></svg>
</svg>
<svg id="mdi:mouse">
<svg xmlns="http://www.w3.org/2000/svg" id="mdi-mouse" viewBox="0 0 24 24"><path d="M11,1.07C7.05,1.56 4,4.92 4,9H11M4,15A8,8 0 0,0 12,23A8,8 0 0,0 20,15V11H4M13,1.07V9H20C20,4.92 16.94,1.56 13,1.07Z" /></svg>
</svg>
<svg id="mdi:numeric">
<svg xmlns="http://www.w3.org/2000/svg" id="mdi-numeric" viewBox="0 0 24 24"><path d="M4,17V9H2V7H6V17H4M22,15C22,16.11 21.1,17 20,17H16V15H20V13H18V11H20V9H16V7H20A2,2 0 0,1 22,9V10.5A1.5,1.5 0 0,1 20.5,12A1.5,1.5 0 0,1 22,13.5V15M14,15V17H8V13C8,11.89 8.9,11 10,11H12V9H8V7H12A2,2 0 0,1 14,9V11C14,12.11 13.1,13 12,13H10V15H14Z" /></svg>
</svg>
<svg id="mdi:repeat-variant">
<svg xmlns="http://www.w3.org/2000/svg" id="mdi-repeat-variant" viewBox="0 0 24 24"><path d="M6,5.75L10.25,10H7V16H13.5L15.5,18H7A2,2 0 0,1 5,16V10H1.75L6,5.75M18,18.25L13.75,14H17V8H10.5L8.5,6H17A2,2 0 0,1 19,8V14H22.25L18,18.25Z" /></svg>
</svg>
</defs>/* end glyphs */
<style>/* inherit to force styles through use tags */
svg path {
    fill: inherit;
}

/* font and background color specifications */
svg.keymap {
    /*
     * ====================
     * Theme Variables
     * ====================
     */

    --logo-path: none;
    --logo-size: 12%;
    --logo-position: 49.5% 5%;

    /* === Colors === */

    --color--material--blue--50: rgb(227, 242, 253);
    --color--material--blue--100: rgb(187, 222, 251);
    --color--material--blue--200: rgb(144, 202, 249);
    --color--material--blue--300: rgb(100, 181, 246);
    --color--material--blue--400: rgb(66, 165, 245);
    --color--material--blue--500: rgb(33, 150, 243);
    --color--material--blue--600: rgb(30, 136, 229);
    --color--material--blue--700: rgb(25, 118, 210);
    --color--material--blue--800: rgb(21, 101, 192);
    --color--material--blue--900: rgb(13, 71, 161);
    --color--material--blue--a100: rgb(130, 177, 255);
    --color--material--blue--a200: rgb(68, 138, 255);
    --color--material--blue--a400: rgb(41, 121, 255);
    --color--material--blue--a700: rgb(41, 98, 255);

    --color--material--blue-gray--50: rgb(236, 239, 241);
    --color--material--blue-gray--100: rgb(207, 216, 220);
    --color--material--blue-gray--200: rgb(176, 190, 197);
    --color--material--blue-gray--300: rgb(144, 164, 174);
    --color--material--blue-gray--400: rgb(120, 144, 156);
    --color--material--blue-gray--500: rgb(96, 125, 139);
    --color--material--blue-gray--600: rgb(84, 110, 122);
    --color--material--blue-gray--700: rgb(69, 90, 100);
    --color--material--blue-gray--800: rgb(55, 71, 79);
    --color--material--blue-gray--900: rgb(38, 50, 56);

    --color--material--blue-light--50: rgb(225, 245, 254);
    --color--material--blue-light--100: rgb(179, 229, 252);
    --color--material--blue-light--200: rgb(129, 212, 250);
    --color--material--blue-light--300: rgb(79, 195, 247);
    --color--material--blue-light--400: rgb(41, 182, 246);
    --color--material--blue-light--500: rgb(3, 169, 244);
    --color--material--blue-light--600: rgb(3, 155, 229);
    --color--material--blue-light--700: rgb(2, 136, 209);
    --color--material--blue-light--800: rgb(2, 119, 189);
    --color--material--blue-light--900: rgb(1, 87, 155);
    --color--material--blue-light--a100: rgb(128, 216, 255);
    --color--material--blue-light--a200: rgb(64, 196, 255);
    --color--material--blue-light--a400: rgb(0, 176, 255);
    --color--material--blue-light--a700: rgb(0, 145, 234);

    --color--material--purple--50: rgb(243, 229, 245);
    --color--material--purple--100: rgb(225, 190, 231);
    --color--material--purple--200: rgb(206, 147, 216);
    --color--material--purple--300: rgb(186, 104, 200);
    --color--material--purple--400: rgb(171, 71, 188);
    --color--material--purple--500: rgb(156, 39, 176);
    --color--material--purple--600: rgb(142, 36, 170);
    --color--material--purple--700: rgb(123, 31, 162);
    --color--material--purple--800: rgb(106, 27, 154);
    --color--material--purple--900: rgb(74, 20, 140);
    --color--material--purple--a100: rgb(234, 128, 252);
    --color--material--purple--a200: rgb(224, 64, 251);
    --color--material--purple--a400: rgb(213, 0, 249);
    --color--material--purple--a700: rgb(170, 0, 255);

    --color--material--red--50: rgb(255, 235, 238);
    --color--material--red--100: rgb(255, 205, 210);
    --color--material--red--200: rgb(239, 154, 154);
    --color--material--red--300: rgb(229, 115, 115);
    --color--material--red--400: rgb(239, 83, 80);
    --color--material--red--500: rgb(244, 67, 54);
    --color--material--red--600: rgb(229, 57, 53);
    --color--material--red--700: rgb(211, 47, 47);
    --color--material--red--800: rgb(198, 40, 40);
    --color--material--red--900: rgb(183, 28, 28);
    --color--material--red--a100: rgb(255, 138, 128);
    --color--material--red--a200: rgb(255, 82, 82);
    --color--material--red--a400: rgb(255, 23, 68);
    --color--material--red--a700: rgb(213, 0, 0);

    --color--material--teal--50: rgb(224, 242, 241);
    --color--material--teal--100: rgb(178, 223, 219);
    --color--material--teal--200: rgb(128, 203, 196);
    --color--material--teal--300: rgb(77, 182, 172);
    --color--material--teal--400: rgb(38, 166, 154);
    --color--material--teal--500: rgb(0, 150, 136);
    --color--material--teal--600: rgb(0, 137, 123);
    --color--material--teal--700: rgb(0, 121, 107);
    --color--material--teal--800: rgb(0, 105, 92);
    --color--material--teal--900: rgb(0, 77, 64);
    --color--material--teal--a100: rgb(167, 255, 235);
    --color--material--teal--a200: rgb(100, 255, 218);
    --color--material--teal--a400: rgb(29, 233, 182);
    --color--material--teal--a700: rgb(0, 191, 165);

    --color--material--yellow--50: rgb(255, 253, 231);
    --color--material--yellow--100: rgb(255, 249, 196);
    --color--material--yellow--200: rgb(255, 245, 157);
    --color--material--yellow--300: rgb(255, 241, 118);
    --color--material--yellow--400: rgb(255, 238, 88);
    --color--material--yellow--500: rgb(255, 235, 59);
    --color--material--yellow--600: rgb(253, 216, 53);
    --color--material--yellow--700: rgb(251, 192, 45);
    --color--material--yellow--800: rgb(249, 168, 37);
    --color--material--yellow--900: rgb(245, 127, 23);
    --color--material--yellow--a100: rgb(255, 255, 141);
    --color--material--yellow--a200: rgb(255, 255, 0);
    --color--material--yellow--a400: rgb(255, 234, 0);
    --color--material--yellow--a700: rgb(255, 214, 0);

    --color--turquoise--500: rgb(51, 204, 204);

    --color--bg: transparent;
    --color--text: var(--color--material--blue-gray--900);

    --color--layer--text: var(--color--material--blue-gray--400);

    --color--key--bg: var(--color--material--blue-gray--50);
    --color--key--border: white;
    --color--key--text--tap: var(--color--text);
    --color--key--text--shifted: var(--color--material--blue-gray--400);
    --color--key--text--hold: var(--color--material--blue-gray--400);

    --color--combo--bg: var(--color--material--blue-gray--100);
    --color--combo--border: var(--color--combo--bg);
    --color--combo--dendron: var(--color--combo--border);
    --color--combo--text--tap: var(--color--material--blue-gray--800);
    --color--combo--text--shifted: var(--color--material--blue-gray--400);
    --color--combo--text--hold: var(--color--combo--text--tap);

    /*
     * ====================
     * /End Theme Variables
     * ====================
     */

    font-family: system-ui, sans-serif;
    font-size: 20px;
    font-weight: 600;
    font-kerning: normal;
    text-rendering: optimizeLegibility;
    fill: var(--color--text);
    background-color: var(--color--bg);
    background-image: var(--logo-path);
    background-repeat: no-repeat;
    background-position: var(--logo-position);
    background-size: var(--logo-size) auto;
}

rect,
path {
  shape-rendering: geometricPrecision;
}

text {
    text-anchor: middle;
    dominant-baseline: middle;
    line-height: 1;
}

/* Layer labels */
text.label {
    font-size: 36px;
    text-anchor: center;
    paint-order: stroke;
    fill: var(--color--layer--text);
    translate: 540px 155px;
}

/* Keys */
rect.key,
rect.combo {
    fill: var(--color--key--bg);
    stroke: var(--color--key--border);
}
rect.key.held {
    fill: var(--color--material--blue-gray--500);
    stroke: var(--color-material--blue-gray-100);
}
.tap {
    fill: var(--color--key--text--tap);
}
.shifted,
.hold {
    font-size: 16px;
    text-anchor: middle;
}

.shifted {
    dominant-baseline: hanging;
    fill: var(--color--key--text--shifted);
    translate: 26px 2px;
}
.shifted.glyph {
    translate: 26px 0px;
}

.hold {
    dominant-baseline: ideographic;
    fill: var(--color--key--text--hold);
    translate: 20px 4px;
}
.hold.glyph {
    translate: 20px 2px;
}

/* homerow mods red */
.key.mdi\:apple-keyboard-command,
.key.mdi\:apple-keyboard-control,
.key.mdi\:apple-keyboard-option,
.key.mdi\:apple-keyboard-shift {
   --color--key--text--hold: var(--color--material--red--300);
}


/*
 * Combos
 */
.combo {
  --color--key--bg: var(--color--combo--bg);
  --color--key--border: var(--color--combo--border);
  --color--key--text--tap: var(--color--combo--text--tap);
  --color--key--text--shifted: var(--color--combo--text--shifted);
  --color--key--text--hold: var(--color--combo--text--hold);
}
rect.combo {
  opacity: 0.8;
  stroke-width: 0;
}
path.combo {
  stroke-width: 1;
  stroke: var(--color--combo--dendron);
  fill: none;
}
.combo.tap {
  font-size: 16px;
}
.combo.shifted {
  font-size: 13px;
  translate: -9px -2px;
}
.combo.shifted.glyph {
  translate: -9px -3px;
}
.combo.hold {
  font-size: 16px;
  translate: 0 0;
}

/*
 * Transparent, None, and Ghost Keys
 */
.trans,
.none,
.ghost {
  opacity: 0.4;
}

/*
 * Overrides
 */
/* thumb keys */
.keypos-30 .key,
.keypos-31 .key,
.keypos-32 .key,
.keypos-33 .key,
.keypos-34 .key,
.keypos-35 .key {
    --color--key--bg: var(--color--material--blue-gray--100);
    --color--key--border: var(--color--material--blue-gray--50);
}

# left hand
.keypos-0 .shifted,
.keypos-1 .shifted,
.keypos-2 .shifted,
.keypos-3 .shifted,
.keypos-4 .shifted,
.keypos-10 .shifted,
.keypos-11 .shifted,
.keypos-12 .shifted,
.keypos-13 .shifted,
.keypos-14 .shifted,
.keypos-20 .shifted,
.keypos-21 .shifted,
.keypos-22 .shifted,
.keypos-23 .shifted,
.keypos-24 .shifted,
.keypos-30 .shifted,
.keypos-31 .shifted,
.keypos-32 .shifted {
  translate: -26px 2px;
}

.keypos-0 .hold,
.keypos-1 .hold,
.keypos-2 .hold,
.keypos-3 .hold,
.keypos-4 .hold,
.keypos-10 .hold,
.keypos-11 .hold,
.keypos-12 .hold,
.keypos-13 .hold,
.keypos-14 .hold,
.keypos-20 .hold,
.keypos-21 .hold,
.keypos-22 .hold,
.keypos-23 .hold,
.keypos-24 .hold,
.keypos-30 .hold,
.keypos-31 .hold,
.keypos-32 .hold {
  translate: -26px 4px;
}

.keypos-0 .hold.glyph,
.keypos-1 .hold.glyph,
.keypos-2 .hold.glyph,
.keypos-3 .hold.glyph,
.keypos-4 .hold.glyph,
.keypos-10 .hold.glyph,
.keypos-11 .hold.glyph,
.keypos-12 .hold.glyph,
.keypos-13 .hold.glyph,
.keypos-14 .hold.glyph,
.keypos-20 .hold.glyph,
.keypos-21 .hold.glyph,
.keypos-22 .hold.glyph,
.keypos-23 .hold.glyph,
.keypos-24 .hold.glyph,
.keypos-30 .hold.glyph,
.keypos-31 .hold.glyph,
.keypos-32 .hold.glyph,
.keypos-38 .hold.glyph {
  translate: -26px 2px;
}

.shifted.mdi\:alpha-w-box {
  translate: 0px 8px;
}
.keypos-38 .shifted.mdi\:alpha-w-box,
.keypos-39 .shifted.mdi\:alpha-w-box {
  translate: 0px 20px;
}

.hold.mdi\:gesture-tap-hold {
  translate: 0px -8px;
}
.keypos-38 .hold.mdi\:gesture-tap-hold,
.keypos-39 .hold.mdi\:gesture-tap-hold {
  translate: 0px -20px;
}

.key .mdi\:toggle-switch ~ .mdi\:usb {
  translate: -22px 26px;
}
.key .mdi\:toggle-switch ~ .mdi\:bluetooth {
  translate: 22px -26px;
}
</style>
<g transform="translate(0, 0)" class="layer-base">
<text x="0" y="0" class="label" id="base">base</text>
<g transform="translate(0, 0)">
<g transform="translate(46, 135) rotate(-10.0)" class="key keypos-0">
<rect rx="4" ry="4" x="-38" y="-38" width="77" height="77" class="key"/>
<text x="0" y="0" class="key tap">Q</text>
</g>
<g transform="translate(135, 67) rotate(-5.0)" class="key keypos-1">
<rect rx="4" ry="4" x="-38" y="-38" width="77" height="77" class="key"/>
<text x="0" y="0" class="key tap">W</text>
</g>
<g transform="translate(233, 40)" class="key keypos-2">
<rect rx="4" ry="4" x="-38" y="-38" width="77" height="77" class="key"/>
<text x="0" y="0" class="key tap">F</text>
</g>
<g transform="translate(313, 68)" class="key keypos-3">
<rect rx="4" ry="4" x="-38" y="-38" width="77" height="77" class="key"/>
<text x="0" y="0" class="key tap">P</text>
</g>
<g transform="translate(393, 78)" class="key keypos-4">
<rect rx="4" ry="4" x="-38" y="-38" width="77" height="77" class="key"/>
<text x="0" y="0" class="key tap">B</text>
</g>
<g transform="translate(683, 78)" class="key keypos-5">
<rect rx="4" ry="4" x="-38" y="-38" width="77" height="77" class="key"/>
<text x="0" y="0" class="key tap">J</text>
</g>
<g transform="translate(763, 68)" class="key keypos-6">
<rect rx="4" ry="4" x="-38" y="-38" width="77" height="77" class="key"/>
<text x="0" y="0" class="key tap">L</text>
</g>
<g transform="translate(843, 40)" class="key keypos-7">
<rect rx="4" ry="4" x="-38" y="-38" width="77" height="77" class="key"/>
<text x="0" y="0" class="key tap">U</text>
</g>
<g transform="translate(940, 67) rotate(5.0)" class="key keypos-8">
<rect rx="4" ry="4" x="-38" y="-38" width="77" height="77" class="key"/>
<text x="0" y="0" class="key tap">Y</text>
</g>
<g transform="translate(1029, 135) rotate(10.0)" class="key keypos-9">
<rect rx="4" ry="4" x="-38" y="-38" width="77" height="77" class="key"/>
<text x="0" y="0" class="key tap">&#x27;</text>
<text x="0" y="-34" class="key shifted">&quot;</text>
</g>
<g transform="translate(59, 214) rotate(-10.0)" class="key keypos-10">
<rect rx="4" ry="4" x="-38" y="-38" width="77" height="77" class="key"/>
<text x="0" y="0" class="key tap">A</text>
<use href="#mdi:apple-keyboard-command" xlink:href="#mdi:apple-keyboard-command" x="-8" y="18" height="16" width="16.0" class="key hold glyph mdi:apple-keyboard-command"/>
</g>
<g transform="translate(142, 147) rotate(-5.0)" class="key keypos-11">
<rect rx="4" ry="4" x="-38" y="-38" width="77" height="77" class="key"/>
<text x="0" y="0" class="key tap">R</text>
<use href="#mdi:apple-keyboard-option" xlink:href="#mdi:apple-keyboard-option" x="-8" y="18" height="16" width="16.0" class="key hold glyph mdi:apple-keyboard-option"/>
</g>
<g transform="translate(233, 120)" class="key keypos-12">
<rect rx="4" ry="4" x="-38" y="-38" width="77" height="77" class="key"/>
<text x="0" y="0" class="key tap">S</text>
<use href="#mdi:apple-keyboard-shift" xlink:href="#mdi:apple-keyboard-shift" x="-8" y="18" height="16" width="16.0" class="key hold glyph mdi:apple-keyboard-shift"/>
</g>
<g transform="translate(313, 148)" class="key keypos-13">
<rect rx="4" ry="4" x="-38" y="-38" width="77" height="77" class="key"/>
<text x="0" y="0" class="key tap">T</text>
<use href="#mdi:apple-keyboard-control" xlink:href="#mdi:apple-keyboard-control" x="-8" y="18" height="16" width="16.0" class="key hold glyph mdi:apple-keyboard-control"/>
</g>
<g transform="translate(393, 158)" class="key keypos-14">
<rect rx="4" ry="4" x="-38" y="-38" width="77" height="77" class="key"/>
<text x="0" y="0" class="key tap">G</text>
</g>
<g transform="translate(683, 158)" class="key keypos-15">
<rect rx="4" ry="4" x="-38" y="-38" width="77" height="77" class="key"/>
<text x="0" y="0" class="key tap">M</text>
</g>
<g transform="translate(763, 148)" class="key keypos-16">
<rect rx="4" ry="4" x="-38" y="-38" width="77" height="77" class="key"/>
<text x="0" y="0" class="key tap">N</text>
<use href="#mdi:apple-keyboard-control" xlink:href="#mdi:apple-keyboard-control" x="-8" y="18" height="16" width="16.0" class="key hold glyph mdi:apple-keyboard-control"/>
</g>
<g transform="translate(843, 120)" class="key keypos-17">
<rect rx="4" ry="4" x="-38" y="-38" width="77" height="77" class="key"/>
<text x="0" y="0" class="key tap">E</text>
<use href="#mdi:apple-keyboard-shift" xlink:href="#mdi:apple-keyboard-shift" x="-8" y="18" height="16" width="16.0" class="key hold glyph mdi:apple-keyboard-shift"/>
</g>
<g transform="translate(933, 147) rotate(5.0)" class="key keypos-18">
<rect rx="4" ry="4" x="-38" y="-38" width="77" height="77" class="key"/>
<text x="0" y="0" class="key tap">I</text>
<use href="#mdi:apple-keyboard-option" xlink:href="#mdi:apple-keyboard-option" x="-8" y="18" height="16" width="16.0" class="key hold glyph mdi:apple-keyboard-option"/>
</g>
<g transform="translate(1016, 214) rotate(10.0)" class="key keypos-19">
<rect rx="4" ry="4" x="-38" y="-38" width="77" height="77" class="key"/>
<text x="0" y="0" class="key tap">O</text>
<use href="#mdi:apple-keyboard-command" xlink:href="#mdi:apple-keyboard-command" x="-8" y="18" height="16" width="16.0" class="key hold glyph mdi:apple-keyboard-command"/>
</g>
<g transform="translate(73, 293) rotate(-10.0)" class="key keypos-20">
<rect rx="4" ry="4" x="-38" y="-38" width="77" height="77" class="key"/>
<text x="0" y="0" class="key tap">Z</text>
</g>
<g transform="translate(149, 226) rotate(-5.0)" class="key keypos-21">
<rect rx="4" ry="4" x="-38" y="-38" width="77" height="77" class="key"/>
<text x="0" y="0" class="key tap">X</text>
</g>
<g transform="translate(233, 200)" class="key keypos-22">
<rect rx="4" ry="4" x="-38" y="-38" width="77" height="77" class="key"/>
<text x="0" y="0" class="key tap">C</text>
</g>
<g transform="translate(313, 228)" class="key keypos-23">
<rect rx="4" ry="4" x="-38" y="-38" width="77" height="77" class="key"/>
<text x="0" y="0" class="key tap">D</text>
</g>
<g transform="translate(393, 238)" class="key keypos-24">
<rect rx="4" ry="4" x="-38" y="-38" width="77" height="77" class="key"/>
<text x="0" y="0" class="key tap">V</text>
</g>
<g transform="translate(683, 238)" class="key keypos-25">
<rect rx="4" ry="4" x="-38" y="-38" width="77" height="77" class="key"/>
<text x="0" y="0" class="key tap">K</text>
</g>
<g transform="translate(763, 228)" class="key keypos-26">
<rect rx="4" ry="4" x="-38" y="-38" width="77" height="77" class="key"/>
<text x="0" y="0" class="key tap">H</text>
</g>
<g transform="translate(843, 200)" class="key keypos-27">
<rect rx="4" ry="4" x="-38" y="-38" width="77" height="77" class="key"/>
<text x="0" y="0" class="key tap">,</text>
<text x="0" y="-34" class="key shifted">;</text>
</g>
<g transform="translate(927, 226) rotate(5.0)" class="key keypos-28">
<rect rx="4" ry="4" x="-38" y="-38" width="77" height="77" class="key"/>
<text x="0" y="0" class="key tap">.</text>
<text x="0" y="-34" class="key shifted">:</text>
</g>
<g transform="translate(1003, 292) rotate(10.0)" class="key keypos-29">
<rect rx="4" ry="4" x="-38" y="-38" width="77" height="77" class="key"/>
<text x="0" y="0" class="key tap">?</text>
<text x="0" y="-34" class="key shifted">!</text>
</g>
<g transform="translate(312, 332) rotate(15.0)" class="key keypos-30">
<rect rx="4" ry="4" x="-38" y="-38" width="77" height="77" class="key"/>
<use href="#mdi:backspace" xlink:href="#mdi:backspace" x="-11" y="-11" height="22" width="22.0" class="key tap glyph mdi:backspace"/>
<use href="#mdi:backspace-reverse-outline" xlink:href="#mdi:backspace-reverse-outline" x="-8" y="-34" height="16" width="16.0" class="key shifted glyph mdi:backspace-reverse-outline"/>
</g>
<g transform="translate(396, 368) rotate(30.0)" class="key keypos-31">
<rect rx="4" ry="4" x="-38" y="-38" width="77" height="77" class="key"/>
<use href="#mdi:apple-keyboard-shift" xlink:href="#mdi:apple-keyboard-shift" x="-8" y="18" height="16" width="16.0" class="key hold glyph mdi:apple-keyboard-shift"/>
<use href="#mdi:alpha-w-box" xlink:href="#mdi:alpha-w-box" x="-8" y="-34" height="16" width="16.0" class="key shifted glyph mdi:alpha-w-box"/>
<use href="#mdi:apple-keyboard-caps" xlink:href="#mdi:apple-keyboard-caps" x="-34" y="-8" height="16" width="16.0" class="key left glyph mdi:apple-keyboard-caps"/>
<use href="#mdi:repeat-variant" xlink:href="#mdi:repeat-variant" x="18" y="-8" height="16" width="16.0" class="key right glyph mdi:repeat-variant"/>
</g>
<g transform="translate(467, 427) rotate(45.0)" class="key keypos-32">
<rect rx="4" ry="4" x="-38" y="-38" width="77" height="77" class="key"/>
<use href="#mdi:keyboard-return" xlink:href="#mdi:keyboard-return" x="-11" y="-11" height="22" width="22.0" class="key tap glyph mdi:keyboard-return"/>
<text x="0" y="34" class="key hold">fn</text>
</g>
<g transform="translate(608, 427) rotate(-45.0)" class="key keypos-33">
<rect rx="4" ry="4" x="-38" y="-38" width="77" height="77" class="key"/>
<use href="#mdi:numeric" xlink:href="#mdi:numeric" x="-11" y="-11" height="22" width="22.0" class="key tap glyph mdi:numeric"/>
<text x="0" y="34" class="key hold">num</text>
<use href="#mdi:alpha-w-box" xlink:href="#mdi:alpha-w-box" x="-8" y="-34" height="16" width="16.0" class="key shifted glyph mdi:alpha-w-box"/>
</g>
<g transform="translate(680, 368) rotate(-30.0)" class="key keypos-34">
<rect rx="4" ry="4" x="-38" y="-38" width="77" height="77" class="key"/>
<use href="#mdi:keyboard-space" xlink:href="#mdi:keyboard-space" x="-11" y="-11" height="22" width="22.0" class="key tap glyph mdi:keyboard-space"/>
<text x="0" y="34" class="key hold">nav</text>
<text x="0" y="-34" class="key shifted">.</text>
</g>
<g transform="translate(763, 332) rotate(-15.0)" class="key keypos-35">
<rect rx="4" ry="4" x="-38" y="-38" width="77" height="77" class="key"/>
<use href="#mdi:mouse" xlink:href="#mdi:mouse" x="-11" y="-11" height="22" width="22.0" class="key tap glyph mdi:mouse"/>
<use href="#mdi:alpha-w-box" xlink:href="#mdi:alpha-w-box" x="-8" y="-34" height="16" width="16.0" class="key shifted glyph mdi:alpha-w-box"/>
</g>
<g class="combo combopos-0">
<rect rx="4" ry="4" x="169" y="39" width="30" height="30" class="combo"/>
<use href="#mdi:keyboard-esc" xlink:href="#mdi:keyboard-esc" x="173" y="43" height="22" width="22.0" class="combo tap glyph mdi:keyboard-esc"/>
</g>
<g class="combo combopos-1">
<rect rx="4" ry="4" x="258" y="39" width="30" height="30" class="combo"/>
<use href="#mdi:mouse" xlink:href="#mdi:mouse" x="262" y="43" height="22" width="22.0" class="combo tap glyph mdi:mouse"/>
<use href="#mdi:alpha-w-box" xlink:href="#mdi:alpha-w-box" x="265" y="43" height="16" width="16.0" class="combo shifted glyph mdi:alpha-w-box"/>
</g>
<g class="combo combopos-2">
<rect rx="4" ry="4" x="172" y="118" width="30" height="30" class="combo"/>
<use href="#mdi:keyboard-tab" xlink:href="#mdi:keyboard-tab" x="176" y="122" height="22" width="22.0" class="combo tap glyph mdi:keyboard-tab"/>
</g>
<g class="combo combopos-3">
<rect rx="4" ry="4" x="258" y="119" width="30" height="30" class="combo"/>
<use href="#mdi:label-variant-outline" xlink:href="#mdi:label-variant-outline" x="262" y="123" height="22" width="22.0" class="combo tap glyph mdi:label-variant-outline"/>
</g>
<g class="combo combopos-4">
<path d="M231,281 h-76 a6.0,6.0 0 0 1 -6.0,-6.0 v-23" class="combo"/>
<path d="M231,281 h76 a6.0,6.0 0 0 0 6.0,-6.0 v-20" class="combo"/>
<rect rx="4" ry="4" x="216" y="266" width="30" height="30" class="combo"/>
<use href="#mdi:content-cut" xlink:href="#mdi:content-cut" x="220" y="270" height="22" width="22.0" class="combo tap glyph mdi:content-cut"/>
</g>
<g class="combo combopos-5">
<rect rx="4" ry="4" x="176" y="198" width="30" height="30" class="combo"/>
<use href="#mdi:content-copy" xlink:href="#mdi:content-copy" x="180" y="202" height="22" width="22.0" class="combo tap glyph mdi:content-copy"/>
</g>
<g class="combo combopos-6">
<rect rx="4" ry="4" x="258" y="199" width="30" height="30" class="combo"/>
<use href="#mdi:content-paste" xlink:href="#mdi:content-paste" x="262" y="203" height="22" width="22.0" class="combo tap glyph mdi:content-paste"/>
</g>
<g class="combo backspace combopos-7">
<rect rx="4" ry="4" x="788" y="39" width="30" height="30" class="combo backspace"/>
<use href="#mdi:backspace" xlink:href="#mdi:backspace" x="792" y="43" height="22" width="22.0" class="combo backspace tap glyph mdi:backspace"/>
</g>
<g class="combo combopos-8">
<rect rx="4" ry="4" x="876" y="38" width="30" height="30" class="combo"/>
<use href="#mdi:backspace-reverse-outline" xlink:href="#mdi:backspace-reverse-outline" x="880" y="42" height="22" width="22.0" class="combo tap glyph mdi:backspace-reverse-outline"/>
</g>
<g class="combo combopos-9">
<rect rx="4" ry="4" x="788" y="119" width="30" height="30" class="combo"/>
<text x="803" y="134" class="combo tap">(</text>
<text x="803" y="123" class="combo shifted">&lt;</text>
</g>
<g class="combo combopos-10">
<rect rx="4" ry="4" x="873" y="118" width="30" height="30" class="combo"/>
<text x="888" y="133" class="combo tap">)</text>
<text x="888" y="122" class="combo shifted">&gt;</text>
</g>
<g class="combo combopos-11">
<rect rx="4" ry="4" x="788" y="199" width="30" height="30" class="combo"/>
<text x="803" y="214" class="combo tap">[</text>
<text x="803" y="203" class="combo shifted">{</text>
</g>
<g class="combo combopos-12">
<rect rx="4" ry="4" x="870" y="198" width="30" height="30" class="combo"/>
<text x="885" y="213" class="combo tap">]</text>
<text x="885" y="202" class="combo shifted">}</text>
</g>
<g class="combo combopos-13">
<rect rx="4" ry="4" x="124" y="92" width="30" height="30" class="combo"/>
<text x="139" y="107" class="combo tap">@</text>
</g>
<g class="combo combopos-14">
<rect rx="4" ry="4" x="218" y="65" width="30" height="30" class="combo"/>
<text x="233" y="80" class="combo tap">#</text>
</g>
<g class="combo combopos-15">
<rect rx="4" ry="4" x="298" y="93" width="30" height="30" class="combo"/>
<text x="313" y="108" class="combo tap">$</text>
</g>
<g class="combo combopos-16">
<rect rx="4" ry="4" x="378" y="103" width="30" height="30" class="combo"/>
<text x="393" y="118" class="combo tap">%</text>
</g>
<g class="combo combopos-17">
<rect rx="4" ry="4" x="130" y="171" width="30" height="30" class="combo"/>
<text x="145" y="186" class="combo tap">`</text>
<text x="145" y="175" class="combo shifted">~</text>
</g>
<g class="combo combopos-18">
<rect rx="4" ry="4" x="218" y="145" width="30" height="30" class="combo"/>
<text x="233" y="160" class="combo tap">\</text>
<text x="233" y="149" class="combo shifted">|</text>
</g>
<g class="combo combopos-19">
<rect rx="4" ry="4" x="298" y="173" width="30" height="30" class="combo"/>
<text x="313" y="188" class="combo tap">=</text>
<text x="313" y="177" class="combo shifted">+</text>
</g>
<g class="combo combopos-20">
<rect rx="4" ry="4" x="378" y="183" width="30" height="30" class="combo"/>
<text x="393" y="198" class="combo tap">~</text>
</g>
<g class="combo combopos-21">
<rect rx="4" ry="4" x="668" y="103" width="30" height="30" class="combo"/>
<text x="683" y="118" class="combo tap">^</text>
</g>
<g class="combo combopos-22">
<rect rx="4" ry="4" x="748" y="93" width="30" height="30" class="combo"/>
<text x="763" y="108" class="combo tap">+</text>
</g>
<g class="combo combopos-23">
<rect rx="4" ry="4" x="828" y="65" width="30" height="30" class="combo"/>
<text x="843" y="80" class="combo tap">*</text>
</g>
<g class="combo combopos-24">
<rect rx="4" ry="4" x="921" y="92" width="30" height="30" class="combo"/>
<text x="936" y="107" class="combo tap">&amp;</text>
</g>
<g class="combo combopos-25">
<rect rx="4" ry="4" x="668" y="183" width="30" height="30" class="combo"/>
<text x="683" y="198" class="combo tap">_</text>
</g>
<g class="combo combopos-26">
<rect rx="4" ry="4" x="748" y="173" width="30" height="30" class="combo"/>
<text x="763" y="188" class="combo tap">-</text>
<text x="763" y="177" class="combo shifted">_</text>
</g>
<g class="combo combopos-27">
<rect rx="4" ry="4" x="828" y="145" width="30" height="30" class="combo"/>
<text x="843" y="160" class="combo tap">/</text>
<text x="843" y="149" class="combo shifted">?</text>
</g>
<g class="combo combopos-28">
<rect rx="4" ry="4" x="915" y="171" width="30" height="30" class="combo"/>
<text x="930" y="186" class="combo tap">|</text>
</g>
</g>
</g>
</svg>
