<svg width="1204" height="513" viewBox="0 0 1204 513" class="keymap" xmlns="http://www.w3.org/2000/svg" xmlns:xlink="http://www.w3.org/1999/xlink">
<defs>/* start glyphs */
<svg id="mdi:alpha-w-box">
<svg xmlns="http://www.w3.org/2000/svg" id="mdi-alpha-w-box" viewBox="0 0 24 24"><path d="M9,17H15A2,2 0 0,0 17,15V7H15V15H13V8H11V15H9V7H7V15A2,2 0 0,0 9,17M5,3H19A2,2 0 0,1 21,5V19A2,2 0 0,1 19,21H5A2,2 0 0,1 3,19V5A2,2 0 0,1 5,3Z" /></svg>
</svg>
<svg id="mdi:apple-keyboard-command">
<svg xmlns="http://www.w3.org/2000/svg" id="mdi-apple-keyboard-command" viewBox="0 0 24 24"><path d="M6,2A4,4 0 0,1 10,6V8H14V6A4,4 0 0,1 18,2A4,4 0 0,1 22,6A4,4 0 0,1 18,10H16V14H18A4,4 0 0,1 22,18A4,4 0 0,1 18,22A4,4 0 0,1 14,18V16H10V18A4,4 0 0,1 6,22A4,4 0 0,1 2,18A4,4 0 0,1 6,14H8V10H6A4,4 0 0,1 2,6A4,4 0 0,1 6,2M16,18A2,2 0 0,0 18,20A2,2 0 0,0 20,18A2,2 0 0,0 18,16H16V18M14,10H10V14H14V10M6,16A2,2 0 0,0 4,18A2,2 0 0,0 6,20A2,2 0 0,0 8,18V16H6M8,6A2,2 0 0,0 6,4A2,2 0 0,0 4,6A2,2 0 0,0 6,8H8V6M18,8A2,2 0 0,0 20,6A2,2 0 0,0 18,4A2,2 0 0,0 16,6V8H18Z" /></svg>
</svg>
<svg id="mdi:apple-keyboard-control">
<svg xmlns="http://www.w3.org/2000/svg" id="mdi-apple-keyboard-control" viewBox="0 0 24 24"><path d="M19.78,11.78L18.36,13.19L12,6.83L5.64,13.19L4.22,11.78L12,4L19.78,11.78Z" /></svg>
</svg>
<svg id="mdi:apple-keyboard-option">
<svg xmlns="http://www.w3.org/2000/svg" id="mdi-apple-keyboard-option" viewBox="0 0 24 24"><path d="M3,4H9.11L16.15,18H21V20H14.88L7.84,6H3V4M14,4H21V6H14V4Z" /></svg>
</svg>
<svg id="mdi:apple-keyboard-shift">
<svg xmlns="http://www.w3.org/2000/svg" id="mdi-apple-keyboard-shift" viewBox="0 0 24 24"><path d="M15,18V12H17.17L12,6.83L6.83,12H9V18H15M12,4L22,14H17V20H7V14H2L12,4Z" /></svg>
</svg>
<svg id="mdi:application-settings-outline">
<svg xmlns="http://www.w3.org/2000/svg" id="mdi-application-settings-outline" viewBox="0 0 24 24"><path d="M21 0H3C1.9 0 1 .9 1 2V18C1 19.1 1.9 20 3 20H21C22.1 20 23 19.1 23 18V2C23 .9 22.1 0 21 0M21 18H3V4H21V18M7 22H9V24H7V22M11 22H13V24H11V22M15 22H17V24H15V22" /></svg>
</svg>
<svg id="mdi:backspace">
<svg xmlns="http://www.w3.org/2000/svg" id="mdi-backspace" viewBox="0 0 24 24"><path d="M22,3H7C6.31,3 5.77,3.35 5.41,3.88L0,12L5.41,20.11C5.77,20.64 6.31,21 7,21H22A2,2 0 0,0 24,19V5A2,2 0 0,0 22,3M19,15.59L17.59,17L14,13.41L10.41,17L9,15.59L12.59,12L9,8.41L10.41,7L14,10.59L17.59,7L19,8.41L15.41,12" /></svg>
</svg>
<svg id="mdi:backspace-reverse-outline">
<svg xmlns="http://www.w3.org/2000/svg" id="mdi-backspace-reverse-outline" viewBox="0 0 24 24"><path d="M5,15.59L6.41,17L10,13.41L13.59,17L15,15.59L11.41,12L15,8.41L13.59,7L10,10.59L6.41,7L5,8.41L8.59,12L5,15.59M2,3A2,2 0 0,0 0,5V19A2,2 0 0,0 2,21H17C17.69,21 18.23,20.64 18.59,20.11L24,12L18.59,3.88C18.23,3.35 17.69,3 17,3H2M2,5H17L21.72,12L17,19H2V5Z" /></svg>
</svg>
<svg id="mdi:mouse">
<svg xmlns="http://www.w3.org/2000/svg" id="mdi-mouse" viewBox="0 0 24 24"><path d="M11,1.07C7.05,1.56 4,4.92 4,9H11M4,15A8,8 0 0,0 12,23A8,8 0 0,0 20,15V11H4M13,1.07V9H20C20,4.92 16.94,1.56 13,1.07Z" /></svg>
</svg>
<svg id="mdi:page-next-outline">
<svg xmlns="http://www.w3.org/2000/svg" id="mdi-page-next-outline" viewBox="0 0 24 24"><path d="M22,3H5A2,2 0 0,0 3,5V9H5V5H22V19H5V15H3V19A2,2 0 0,0 5,21H22A2,2 0 0,0 24,19V5A2,2 0 0,0 22,3M7,15V13H0V11H7V9L11,12L7,15M20,13H13V11H20V13M20,9H13V7H20V9M17,17H13V15H17V17Z" /></svg>
</svg>
<svg id="mdi:page-previous-outline">
<svg xmlns="http://www.w3.org/2000/svg" id="mdi-page-previous-outline" viewBox="0 0 24 24"><path d="M2,3H19A2,2 0 0,1 21,5V9H19V5H2V19H19V15H21V19A2,2 0 0,1 19,21H2A2,2 0 0,1 0,19V5A2,2 0 0,1 2,3M17,15V13H24V11H17V9L13,12L17,15M4,13H11V11H4V13M4,9H11V7H4V9M4,17H8V15H4V17Z" /></svg>
</svg>
<svg id="mdi:play-pause">
<svg xmlns="http://www.w3.org/2000/svg" id="mdi-play-pause" viewBox="0 0 24 24"><path d="M3,5V19L11,12M13,19H16V5H13M18,5V19H21V5" /></svg>
</svg>
<svg id="mdi:skip-next">
<svg xmlns="http://www.w3.org/2000/svg" id="mdi-skip-next" viewBox="0 0 24 24"><path d="M16,18H18V6H16M6,18L14.5,12L6,6V18Z" /></svg>
</svg>
<svg id="mdi:skip-previous">
<svg xmlns="http://www.w3.org/2000/svg" id="mdi-skip-previous" viewBox="0 0 24 24"><path d="M6,18V6H8V18H6M9.5,12L18,6V18L9.5,12Z" /></svg>
</svg>
<svg id="mdi:volume-high">
<svg xmlns="http://www.w3.org/2000/svg" id="mdi-volume-high" viewBox="0 0 24 24"><path d="M14,3.23V5.29C16.89,6.15 19,8.83 19,12C19,15.17 16.89,17.84 14,18.7V20.77C18,19.86 21,16.28 21,12C21,7.72 18,4.14 14,3.23M16.5,12C16.5,10.23 15.5,8.71 14,7.97V16C15.5,15.29 16.5,13.76 16.5,12M3,9V15H7L12,20V4L7,9H3Z" /></svg>
</svg>
<svg id="mdi:volume-low">
<svg xmlns="http://www.w3.org/2000/svg" id="mdi-volume-low" viewBox="0 0 24 24"><path d="M7,9V15H11L16,20V4L11,9H7Z" /></svg>
</svg>
<svg id="mdi:volume-off">
<svg xmlns="http://www.w3.org/2000/svg" id="mdi-volume-off" viewBox="0 0 24 24"><path d="M12,4L9.91,6.09L12,8.18M4.27,3L3,4.27L7.73,9H3V15H7L12,20V13.27L16.25,17.53C15.58,18.04 14.83,18.46 14,18.7V20.77C15.38,20.45 16.63,19.82 17.68,18.96L19.73,21L21,19.73L12,10.73M19,12C19,12.94 18.8,13.82 18.46,14.64L19.97,16.15C20.62,14.91 21,13.5 21,12C21,7.72 18,4.14 14,3.23V5.29C16.89,6.15 19,8.83 19,12M16.5,12C16.5,10.23 15.5,8.71 14,7.97V10.18L16.45,12.63C16.5,12.43 16.5,12.21 16.5,12Z" /></svg>
</svg>
</defs>/* end glyphs */
<style>/* inherit to force styles through use tags */
svg path {
    fill: inherit;
}

/* font and background color specifications */
svg.keymap {
    /*
     * ====================
     * Theme Variables
     * ====================
     */

    --logo-path: none;
    --logo-size: 12%;
    --logo-position: 49.5% 5%;

    /* === Colors === */

    --color--material--blue--50: rgb(227, 242, 253);
    --color--material--blue--100: rgb(187, 222, 251);
    --color--material--blue--200: rgb(144, 202, 249);
    --color--material--blue--300: rgb(100, 181, 246);
    --color--material--blue--400: rgb(66, 165, 245);
    --color--material--blue--500: rgb(33, 150, 243);
    --color--material--blue--600: rgb(30, 136, 229);
    --color--material--blue--700: rgb(25, 118, 210);
    --color--material--blue--800: rgb(21, 101, 192);
    --color--material--blue--900: rgb(13, 71, 161);
    --color--material--blue--a100: rgb(130, 177, 255);
    --color--material--blue--a200: rgb(68, 138, 255);
    --color--material--blue--a400: rgb(41, 121, 255);
    --color--material--blue--a700: rgb(41, 98, 255);

    --color--material--blue-gray--50: rgb(236, 239, 241);
    --color--material--blue-gray--100: rgb(207, 216, 220);
    --color--material--blue-gray--200: rgb(176, 190, 197);
    --color--material--blue-gray--300: rgb(144, 164, 174);
    --color--material--blue-gray--400: rgb(120, 144, 156);
    --color--material--blue-gray--500: rgb(96, 125, 139);
    --color--material--blue-gray--600: rgb(84, 110, 122);
    --color--material--blue-gray--700: rgb(69, 90, 100);
    --color--material--blue-gray--800: rgb(55, 71, 79);
    --color--material--blue-gray--900: rgb(38, 50, 56);

    --color--material--blue-light--50: rgb(225, 245, 254);
    --color--material--blue-light--100: rgb(179, 229, 252);
    --color--material--blue-light--200: rgb(129, 212, 250);
    --color--material--blue-light--300: rgb(79, 195, 247);
    --color--material--blue-light--400: rgb(41, 182, 246);
    --color--material--blue-light--500: rgb(3, 169, 244);
    --color--material--blue-light--600: rgb(3, 155, 229);
    --color--material--blue-light--700: rgb(2, 136, 209);
    --color--material--blue-light--800: rgb(2, 119, 189);
    --color--material--blue-light--900: rgb(1, 87, 155);
    --color--material--blue-light--a100: rgb(128, 216, 255);
    --color--material--blue-light--a200: rgb(64, 196, 255);
    --color--material--blue-light--a400: rgb(0, 176, 255);
    --color--material--blue-light--a700: rgb(0, 145, 234);

    --color--material--purple--50: rgb(243, 229, 245);
    --color--material--purple--100: rgb(225, 190, 231);
    --color--material--purple--200: rgb(206, 147, 216);
    --color--material--purple--300: rgb(186, 104, 200);
    --color--material--purple--400: rgb(171, 71, 188);
    --color--material--purple--500: rgb(156, 39, 176);
    --color--material--purple--600: rgb(142, 36, 170);
    --color--material--purple--700: rgb(123, 31, 162);
    --color--material--purple--800: rgb(106, 27, 154);
    --color--material--purple--900: rgb(74, 20, 140);
    --color--material--purple--a100: rgb(234, 128, 252);
    --color--material--purple--a200: rgb(224, 64, 251);
    --color--material--purple--a400: rgb(213, 0, 249);
    --color--material--purple--a700: rgb(170, 0, 255);

    --color--material--red--50: rgb(255, 235, 238);
    --color--material--red--100: rgb(255, 205, 210);
    --color--material--red--200: rgb(239, 154, 154);
    --color--material--red--300: rgb(229, 115, 115);
    --color--material--red--400: rgb(239, 83, 80);
    --color--material--red--500: rgb(244, 67, 54);
    --color--material--red--600: rgb(229, 57, 53);
    --color--material--red--700: rgb(211, 47, 47);
    --color--material--red--800: rgb(198, 40, 40);
    --color--material--red--900: rgb(183, 28, 28);
    --color--material--red--a100: rgb(255, 138, 128);
    --color--material--red--a200: rgb(255, 82, 82);
    --color--material--red--a400: rgb(255, 23, 68);
    --color--material--red--a700: rgb(213, 0, 0);

    --color--material--teal--50: rgb(224, 242, 241);
    --color--material--teal--100: rgb(178, 223, 219);
    --color--material--teal--200: rgb(128, 203, 196);
    --color--material--teal--300: rgb(77, 182, 172);
    --color--material--teal--400: rgb(38, 166, 154);
    --color--material--teal--500: rgb(0, 150, 136);
    --color--material--teal--600: rgb(0, 137, 123);
    --color--material--teal--700: rgb(0, 121, 107);
    --color--material--teal--800: rgb(0, 105, 92);
    --color--material--teal--900: rgb(0, 77, 64);
    --color--material--teal--a100: rgb(167, 255, 235);
    --color--material--teal--a200: rgb(100, 255, 218);
    --color--material--teal--a400: rgb(29, 233, 182);
    --color--material--teal--a700: rgb(0, 191, 165);

    --color--material--yellow--50: rgb(255, 253, 231);
    --color--material--yellow--100: rgb(255, 249, 196);
    --color--material--yellow--200: rgb(255, 245, 157);
    --color--material--yellow--300: rgb(255, 241, 118);
    --color--material--yellow--400: rgb(255, 238, 88);
    --color--material--yellow--500: rgb(255, 235, 59);
    --color--material--yellow--600: rgb(253, 216, 53);
    --color--material--yellow--700: rgb(251, 192, 45);
    --color--material--yellow--800: rgb(249, 168, 37);
    --color--material--yellow--900: rgb(245, 127, 23);
    --color--material--yellow--a100: rgb(255, 255, 141);
    --color--material--yellow--a200: rgb(255, 255, 0);
    --color--material--yellow--a400: rgb(255, 234, 0);
    --color--material--yellow--a700: rgb(255, 214, 0);

    --color--turquoise--500: rgb(51, 204, 204);

    --color--bg: transparent;
    --color--text: var(--color--material--blue-gray--900);

    --color--layer--text: var(--color--material--blue-gray--400);

    --color--key--bg: var(--color--material--blue-gray--50);
    --color--key--border: white;
    --color--key--text--tap: var(--color--text);
    --color--key--text--shifted: var(--color--material--blue-gray--400);
    --color--key--text--hold: var(--color--material--blue-gray--400);

    --color--combo--bg: var(--color--material--blue-gray--100);
    --color--combo--border: var(--color--combo--bg);
    --color--combo--dendron: var(--color--combo--border);
    --color--combo--text--tap: var(--color--material--blue-gray--800);
    --color--combo--text--shifted: var(--color--material--blue-gray--400);
    --color--combo--text--hold: var(--color--combo--text--tap);

    /*
     * ====================
     * /End Theme Variables
     * ====================
     */

    font-family: system-ui, sans-serif;
    font-size: 20px;
    font-weight: 600;
    font-kerning: normal;
    text-rendering: optimizeLegibility;
    fill: var(--color--text);
    background-color: var(--color--bg);
    background-image: var(--logo-path);
    background-repeat: no-repeat;
    background-position: var(--logo-position);
    background-size: var(--logo-size) auto;
}

rect,
path {
  shape-rendering: geometricPrecision;
}

text {
    text-anchor: middle;
    dominant-baseline: middle;
    line-height: 1;
}

/* Layer labels */
text.label {
    font-size: 36px;
    text-anchor: center;
    paint-order: stroke;
    fill: var(--color--layer--text);
    translate: 600px 155px;
}

/* Keys */
rect.key,
rect.combo {
    fill: var(--color--key--bg);
    stroke: var(--color--key--border);
}
rect.key.held {
    fill: var(--color--material--blue-gray--500);
    stroke: var(--color-material--blue-gray-100);
}
.tap {
    fill: var(--color--key--text--tap);
}
.shifted,
.hold {
    font-size: 16px;
    text-anchor: middle;
}

.shifted {
    dominant-baseline: hanging;
    fill: var(--color--key--text--shifted);
    translate: 26px 2px;
}
.shifted.glyph {
    translate: 26px 0px;
}

.hold {
    dominant-baseline: ideographic;
    fill: var(--color--key--text--hold);
    translate: 20px 4px;
}
.hold.glyph {
    translate: 20px 2px;
}

/* homerow mods red */
.key.mdi\:apple-keyboard-command,
.key.mdi\:apple-keyboard-control,
.key.mdi\:apple-keyboard-option,
.key.mdi\:apple-keyboard-shift {
   --color--key--text--hold: var(--color--material--red--300);
}


/*
 * Combos
 */
.combo {
  --color--key--bg: var(--color--combo--bg);
  --color--key--border: var(--color--combo--border);
  --color--key--text--tap: var(--color--combo--text--tap);
  --color--key--text--shifted: var(--color--combo--text--shifted);
  --color--key--text--hold: var(--color--combo--text--hold);
}
rect.combo {
  opacity: 0.8;
  stroke-width: 0;
}
path.combo {
  stroke-width: 1;
  stroke: var(--color--combo--dendron);
  fill: none;
}
.combo.tap {
  font-size: 16px;
}
.combo.shifted {
  font-size: 13px;
  translate: -9px -2px;
}
.combo.shifted.glyph {
  translate: -9px -3px;
}
.combo.hold {
  font-size: 16px;
  translate: 0 0;
}

/*
 * Transparent, None, and Ghost Keys
 */
.trans,
.none,
.ghost {
  opacity: 0.4;
}

/*
 * Overrides
 */
/* thumb keys */
.keypos-30 .key,
.keypos-31 .key,
.keypos-32 .key,
.keypos-33 .key,
.keypos-34 .key,
.keypos-35 .key {
    --color--key--bg: var(--color--material--blue-gray--100);
    --color--key--border: var(--color--material--blue-gray--50);
}

# left hand
.keypos-0 .shifted,
.keypos-1 .shifted,
.keypos-2 .shifted,
.keypos-3 .shifted,
.keypos-4 .shifted,
.keypos-10 .shifted,
.keypos-11 .shifted,
.keypos-12 .shifted,
.keypos-13 .shifted,
.keypos-14 .shifted,
.keypos-20 .shifted,
.keypos-21 .shifted,
.keypos-22 .shifted,
.keypos-23 .shifted,
.keypos-24 .shifted,
.keypos-30 .shifted,
.keypos-31 .shifted,
.keypos-32 .shifted {
  translate: -26px 2px;
}

.keypos-0 .hold,
.keypos-1 .hold,
.keypos-2 .hold,
.keypos-3 .hold,
.keypos-4 .hold,
.keypos-10 .hold,
.keypos-11 .hold,
.keypos-12 .hold,
.keypos-13 .hold,
.keypos-14 .hold,
.keypos-20 .hold,
.keypos-21 .hold,
.keypos-22 .hold,
.keypos-23 .hold,
.keypos-24 .hold,
.keypos-30 .hold,
.keypos-31 .hold,
.keypos-32 .hold {
  translate: -26px 4px;
}

.keypos-0 .hold.glyph,
.keypos-1 .hold.glyph,
.keypos-2 .hold.glyph,
.keypos-3 .hold.glyph,
.keypos-4 .hold.glyph,
.keypos-10 .hold.glyph,
.keypos-11 .hold.glyph,
.keypos-12 .hold.glyph,
.keypos-13 .hold.glyph,
.keypos-14 .hold.glyph,
.keypos-20 .hold.glyph,
.keypos-21 .hold.glyph,
.keypos-22 .hold.glyph,
.keypos-23 .hold.glyph,
.keypos-24 .hold.glyph,
.keypos-30 .hold.glyph,
.keypos-31 .hold.glyph,
.keypos-32 .hold.glyph,
.keypos-38 .hold.glyph {
  translate: -26px 2px;
}

.shifted.mdi\:alpha-w-box {
  translate: 0px 8px;
}
.keypos-38 .shifted.mdi\:alpha-w-box,
.keypos-39 .shifted.mdi\:alpha-w-box {
  translate: 0px 20px;
}

.hold.mdi\:gesture-tap-hold {
  translate: 0px -8px;
}
.keypos-38 .hold.mdi\:gesture-tap-hold,
.keypos-39 .hold.mdi\:gesture-tap-hold {
  translate: 0px -20px;
}

.key .mdi\:toggle-switch ~ .mdi\:usb {
  translate: -22px 26px;
}
.key .mdi\:toggle-switch ~ .mdi\:bluetooth {
  translate: 22px -26px;
}
</style>
<g transform="translate(0, 0)" class="layer-fn">
<text x="0" y="0" class="label" id="fn">fn</text>
<g transform="translate(0, 0)">
<g transform="translate(50, 138) rotate(-17.0)" class="key keypos-0">
<rect rx="4" ry="4" x="-38" y="-38" width="77" height="77" class="key"/>
<text x="0" y="0" class="key tap">F12</text>
</g>
<g transform="translate(147, 81) rotate(-10.0)" class="key keypos-1">
<rect rx="4" ry="4" x="-38" y="-38" width="77" height="77" class="key"/>
<text x="0" y="0" class="key tap">F7</text>
</g>
<g transform="translate(243, 43) rotate(-5.0)" class="key keypos-2">
<rect rx="4" ry="4" x="-38" y="-38" width="77" height="77" class="key"/>
<text x="0" y="0" class="key tap">F8</text>
</g>
<g transform="translate(345, 62)" class="key keypos-3">
<rect rx="4" ry="4" x="-38" y="-38" width="77" height="77" class="key"/>
<text x="0" y="0" class="key tap">F9</text>
</g>
<g transform="translate(430, 75)" class="key trans keypos-4">
<rect rx="4" ry="4" x="-38" y="-38" width="77" height="77" class="key trans"/>
<text x="0" y="0" class="key trans tap">▽</text>
</g>
<g transform="translate(774, 75)" class="key trans keypos-5">
<rect rx="4" ry="4" x="-38" y="-38" width="77" height="77" class="key trans"/>
<text x="0" y="0" class="key trans tap">▽</text>
</g>
<g transform="translate(858, 62)" class="key keypos-6">
<rect rx="4" ry="4" x="-38" y="-38" width="77" height="77" class="key"/>
<use href="#mdi:skip-previous" xlink:href="#mdi:skip-previous" x="-11" y="-11" height="22" width="22.0" class="key tap glyph mdi:skip-previous"/>
</g>
<g transform="translate(961, 43) rotate(5.0)" class="key keypos-7">
<rect rx="4" ry="4" x="-38" y="-38" width="77" height="77" class="key"/>
<use href="#mdi:volume-high" xlink:href="#mdi:volume-high" x="-11" y="-11" height="22" width="22.0" class="key tap glyph mdi:volume-high"/>
</g>
<g transform="translate(1057, 81) rotate(10.0)" class="key keypos-8">
<rect rx="4" ry="4" x="-38" y="-38" width="77" height="77" class="key"/>
<use href="#mdi:skip-next" xlink:href="#mdi:skip-next" x="-11" y="-11" height="22" width="22.0" class="key tap glyph mdi:skip-next"/>
</g>
<g transform="translate(1154, 138) rotate(17.0)" class="key trans keypos-9">
<rect rx="4" ry="4" x="-38" y="-38" width="77" height="77" class="key trans"/>
<text x="0" y="0" class="key trans tap">▽</text>
</g>
<g transform="translate(73, 219) rotate(-17.0)" class="key keypos-10">
<rect rx="4" ry="4" x="-38" y="-38" width="77" height="77" class="key"/>
<text x="0" y="0" class="key tap">F11</text>
<use href="#mdi:apple-keyboard-command" xlink:href="#mdi:apple-keyboard-command" x="-8" y="18" height="16" width="16.0" class="key hold glyph mdi:apple-keyboard-command"/>
</g>
<g transform="translate(161, 164) rotate(-10.0)" class="key keypos-11">
<rect rx="4" ry="4" x="-38" y="-38" width="77" height="77" class="key"/>
<text x="0" y="0" class="key tap">F4</text>
<use href="#mdi:apple-keyboard-option" xlink:href="#mdi:apple-keyboard-option" x="-8" y="18" height="16" width="16.0" class="key hold glyph mdi:apple-keyboard-option"/>
</g>
<g transform="translate(250, 128) rotate(-5.0)" class="key keypos-12">
<rect rx="4" ry="4" x="-38" y="-38" width="77" height="77" class="key"/>
<text x="0" y="0" class="key tap">F5</text>
<use href="#mdi:apple-keyboard-shift" xlink:href="#mdi:apple-keyboard-shift" x="-8" y="18" height="16" width="16.0" class="key hold glyph mdi:apple-keyboard-shift"/>
</g>
<g transform="translate(345, 146)" class="key keypos-13">
<rect rx="4" ry="4" x="-38" y="-38" width="77" height="77" class="key"/>
<text x="0" y="0" class="key tap">F6</text>
<use href="#mdi:apple-keyboard-control" xlink:href="#mdi:apple-keyboard-control" x="-8" y="18" height="16" width="16.0" class="key hold glyph mdi:apple-keyboard-control"/>
</g>
<g transform="translate(430, 160)" class="key trans keypos-14">
<rect rx="4" ry="4" x="-38" y="-38" width="77" height="77" class="key trans"/>
<text x="0" y="0" class="key trans tap">▽</text>
</g>
<g transform="translate(774, 160)" class="key trans keypos-15">
<rect rx="4" ry="4" x="-38" y="-38" width="77" height="77" class="key trans"/>
<text x="0" y="0" class="key trans tap">▽</text>
</g>
<g transform="translate(858, 146)" class="key keypos-16">
<rect rx="4" ry="4" x="-38" y="-38" width="77" height="77" class="key"/>
<use href="#mdi:page-next-outline" xlink:href="#mdi:page-next-outline" x="-11" y="-11" height="22" width="22.0" class="key tap glyph mdi:page-next-outline"/>
<use href="#mdi:apple-keyboard-control" xlink:href="#mdi:apple-keyboard-control" x="-8" y="18" height="16" width="16.0" class="key hold glyph mdi:apple-keyboard-control"/>
</g>
<g transform="translate(954, 128) rotate(5.0)" class="key keypos-17">
<rect rx="4" ry="4" x="-38" y="-38" width="77" height="77" class="key"/>
<use href="#mdi:volume-low" xlink:href="#mdi:volume-low" x="-11" y="-11" height="22" width="22.0" class="key tap glyph mdi:volume-low"/>
<use href="#mdi:apple-keyboard-shift" xlink:href="#mdi:apple-keyboard-shift" x="-8" y="18" height="16" width="16.0" class="key hold glyph mdi:apple-keyboard-shift"/>
</g>
<g transform="translate(1043, 164) rotate(10.0)" class="key keypos-18">
<rect rx="4" ry="4" x="-38" y="-38" width="77" height="77" class="key"/>
<use href="#mdi:page-previous-outline" xlink:href="#mdi:page-previous-outline" x="-11" y="-11" height="22" width="22.0" class="key tap glyph mdi:page-previous-outline"/>
<use href="#mdi:apple-keyboard-option" xlink:href="#mdi:apple-keyboard-option" x="-8" y="18" height="16" width="16.0" class="key hold glyph mdi:apple-keyboard-option"/>
</g>
<g transform="translate(1130, 219) rotate(17.0)" class="key trans keypos-19">
<rect rx="4" ry="4" x="-38" y="-38" width="77" height="77" class="key trans"/>
<text x="0" y="0" class="key trans tap">▽</text>
</g>
<g transform="translate(97, 300) rotate(-17.0)" class="key keypos-20">
<rect rx="4" ry="4" x="-38" y="-38" width="77" height="77" class="key"/>
<text x="0" y="0" class="key tap">F10</text>
</g>
<g transform="translate(175, 247) rotate(-10.0)" class="key keypos-21">
<rect rx="4" ry="4" x="-38" y="-38" width="77" height="77" class="key"/>
<text x="0" y="0" class="key tap">F1</text>
</g>
<g transform="translate(257, 212) rotate(-5.0)" class="key keypos-22">
<rect rx="4" ry="4" x="-38" y="-38" width="77" height="77" class="key"/>
<text x="0" y="0" class="key tap">F2</text>
</g>
<g transform="translate(345, 231)" class="key keypos-23">
<rect rx="4" ry="4" x="-38" y="-38" width="77" height="77" class="key"/>
<text x="0" y="0" class="key tap">F3</text>
</g>
<g transform="translate(430, 244)" class="key trans keypos-24">
<rect rx="4" ry="4" x="-38" y="-38" width="77" height="77" class="key trans"/>
<text x="0" y="0" class="key trans tap">▽</text>
</g>
<g transform="translate(774, 244)" class="key trans keypos-25">
<rect rx="4" ry="4" x="-38" y="-38" width="77" height="77" class="key trans"/>
<text x="0" y="0" class="key trans tap">▽</text>
</g>
<g transform="translate(858, 231)" class="key trans keypos-26">
<rect rx="4" ry="4" x="-38" y="-38" width="77" height="77" class="key trans"/>
<text x="0" y="0" class="key trans tap">▽</text>
</g>
<g transform="translate(947, 212) rotate(5.0)" class="key keypos-27">
<rect rx="4" ry="4" x="-38" y="-38" width="77" height="77" class="key"/>
<use href="#mdi:application-settings-outline" xlink:href="#mdi:application-settings-outline" x="-11" y="-11" height="22" width="22.0" class="key tap glyph mdi:application-settings-outline"/>
</g>
<g transform="translate(1029, 247) rotate(10.0)" class="key trans keypos-28">
<rect rx="4" ry="4" x="-38" y="-38" width="77" height="77" class="key trans"/>
<text x="0" y="0" class="key trans tap">▽</text>
</g>
<g transform="translate(1107, 300) rotate(17.0)" class="key trans keypos-29">
<rect rx="4" ry="4" x="-38" y="-38" width="77" height="77" class="key trans"/>
<text x="0" y="0" class="key trans tap">▽</text>
</g>
<g transform="translate(356, 359) rotate(15.0)" class="key keypos-30">
<rect rx="4" ry="4" x="-38" y="-38" width="77" height="77" class="key"/>
<use href="#mdi:backspace" xlink:href="#mdi:backspace" x="-11" y="-11" height="22" width="22.0" class="key tap glyph mdi:backspace"/>
<use href="#mdi:backspace-reverse-outline" xlink:href="#mdi:backspace-reverse-outline" x="-8" y="-34" height="16" width="16.0" class="key shifted glyph mdi:backspace-reverse-outline"/>
</g>
<g transform="translate(442, 396) rotate(30.0)" class="key trans keypos-31">
<rect rx="4" ry="4" x="-38" y="-38" width="77" height="77" class="key trans"/>
<text x="0" y="0" class="key trans tap">▽</text>
</g>
<g transform="translate(515, 456) rotate(45.0)" class="key held keypos-32">
<rect rx="4" ry="4" x="-38" y="-38" width="77" height="77" class="key held"/>
</g>
<g transform="translate(688, 456) rotate(-45.0)" class="key keypos-33">
<rect rx="4" ry="4" x="-38" y="-38" width="77" height="77" class="key"/>
<use href="#mdi:volume-off" xlink:href="#mdi:volume-off" x="-11" y="-11" height="22" width="22.0" class="key tap glyph mdi:volume-off"/>
</g>
<g transform="translate(762, 396) rotate(-30.0)" class="key keypos-34">
<rect rx="4" ry="4" x="-38" y="-38" width="77" height="77" class="key"/>
<use href="#mdi:play-pause" xlink:href="#mdi:play-pause" x="-11" y="-11" height="22" width="22.0" class="key tap glyph mdi:play-pause"/>
</g>
<g transform="translate(848, 359) rotate(-15.0)" class="key keypos-35">
<rect rx="4" ry="4" x="-38" y="-38" width="77" height="77" class="key"/>
<use href="#mdi:mouse" xlink:href="#mdi:mouse" x="-11" y="-11" height="22" width="22.0" class="key tap glyph mdi:mouse"/>
<use href="#mdi:alpha-w-box" xlink:href="#mdi:alpha-w-box" x="-8" y="-34" height="16" width="16.0" class="key shifted glyph mdi:alpha-w-box"/>
</g>
</g>
</g>
</svg>
