<svg width="1204" height="513" viewBox="0 0 1204 513" class="keymap" xmlns="http://www.w3.org/2000/svg" xmlns:xlink="http://www.w3.org/1999/xlink">
<defs>/* start glyphs */
<svg id="mdi:alpha-w-box">
<svg xmlns="http://www.w3.org/2000/svg" id="mdi-alpha-w-box" viewBox="0 0 24 24"><path d="M9,17H15A2,2 0 0,0 17,15V7H15V15H13V8H11V15H9V7H7V15A2,2 0 0,0 9,17M5,3H19A2,2 0 0,1 21,5V19A2,2 0 0,1 19,21H5A2,2 0 0,1 3,19V5A2,2 0 0,1 5,3Z" /></svg>
</svg>
<svg id="mdi:apple-keyboard-command">
<svg xmlns="http://www.w3.org/2000/svg" id="mdi-apple-keyboard-command" viewBox="0 0 24 24"><path d="M6,2A4,4 0 0,1 10,6V8H14V6A4,4 0 0,1 18,2A4,4 0 0,1 22,6A4,4 0 0,1 18,10H16V14H18A4,4 0 0,1 22,18A4,4 0 0,1 18,22A4,4 0 0,1 14,18V16H10V18A4,4 0 0,1 6,22A4,4 0 0,1 2,18A4,4 0 0,1 6,14H8V10H6A4,4 0 0,1 2,6A4,4 0 0,1 6,2M16,18A2,2 0 0,0 18,20A2,2 0 0,0 20,18A2,2 0 0,0 18,16H16V18M14,10H10V14H14V10M6,16A2,2 0 0,0 4,18A2,2 0 0,0 6,20A2,2 0 0,0 8,18V16H6M8,6A2,2 0 0,0 6,4A2,2 0 0,0 4,6A2,2 0 0,0 6,8H8V6M18,8A2,2 0 0,0 20,6A2,2 0 0,0 18,4A2,2 0 0,0 16,6V8H18Z" /></svg>
</svg>
<svg id="mdi:apple-keyboard-control">
<svg xmlns="http://www.w3.org/2000/svg" id="mdi-apple-keyboard-control" viewBox="0 0 24 24"><path d="M19.78,11.78L18.36,13.19L12,6.83L5.64,13.19L4.22,11.78L12,4L19.78,11.78Z" /></svg>
</svg>
<svg id="mdi:apple-keyboard-option">
<svg xmlns="http://www.w3.org/2000/svg" id="mdi-apple-keyboard-option" viewBox="0 0 24 24"><path d="M3,4H9.11L16.15,18H21V20H14.88L7.84,6H3V4M14,4H21V6H14V4Z" /></svg>
</svg>
<svg id="mdi:apple-keyboard-shift">
<svg xmlns="http://www.w3.org/2000/svg" id="mdi-apple-keyboard-shift" viewBox="0 0 24 24"><path d="M15,18V12H17.17L12,6.83L6.83,12H9V18H15M12,4L22,14H17V20H7V14H2L12,4Z" /></svg>
</svg>
<svg id="mdi:apps-box">
<svg xmlns="http://www.w3.org/2000/svg" id="mdi-apps-box" viewBox="0 0 24 24"><path d="M5,3H19A2,2 0 0,1 21,5V19A2,2 0 0,1 19,21H5A2,2 0 0,1 3,19V5A2,2 0 0,1 5,3M7,7V9H9V7H7M11,7V9H13V7H11M15,7V9H17V7H15M7,11V13H9V11H7M11,11V13H13V11H11M15,11V13H17V11H15M7,15V17H9V15H7M11,15V17H13V15H11M15,15V17H17V15H15Z" /></svg>
</svg>
<svg id="mdi:arrow-down-bold">
<svg xmlns="http://www.w3.org/2000/svg" id="mdi-arrow-down-bold" viewBox="0 0 24 24"><path d="M9,4H15V12H19.84L12,19.84L4.16,12H9V4Z" /></svg>
</svg>
<svg id="mdi:arrow-left-bold">
<svg xmlns="http://www.w3.org/2000/svg" id="mdi-arrow-left-bold" viewBox="0 0 24 24"><path d="M20,9V15H12V19.84L4.16,12L12,4.16V9H20Z" /></svg>
</svg>
<svg id="mdi:arrow-right-bold">
<svg xmlns="http://www.w3.org/2000/svg" id="mdi-arrow-right-bold" viewBox="0 0 24 24"><path d="M4,15V9H12V4.16L19.84,12L12,19.84V15H4Z" /></svg>
</svg>
<svg id="mdi:arrow-up-bold">
<svg xmlns="http://www.w3.org/2000/svg" id="mdi-arrow-up-bold" viewBox="0 0 24 24"><path d="M15,20H9V12H4.16L12,4.16L19.84,12H15V20Z" /></svg>
</svg>
<svg id="mdi:backspace">
<svg xmlns="http://www.w3.org/2000/svg" id="mdi-backspace" viewBox="0 0 24 24"><path d="M22,3H7C6.31,3 5.77,3.35 5.41,3.88L0,12L5.41,20.11C5.77,20.64 6.31,21 7,21H22A2,2 0 0,0 24,19V5A2,2 0 0,0 22,3M19,15.59L17.59,17L14,13.41L10.41,17L9,15.59L12.59,12L9,8.41L10.41,7L14,10.59L17.59,7L19,8.41L15.41,12" /></svg>
</svg>
<svg id="mdi:backspace-reverse-outline">
<svg xmlns="http://www.w3.org/2000/svg" id="mdi-backspace-reverse-outline" viewBox="0 0 24 24"><path d="M5,15.59L6.41,17L10,13.41L13.59,17L15,15.59L11.41,12L15,8.41L13.59,7L10,10.59L6.41,7L5,8.41L8.59,12L5,15.59M2,3A2,2 0 0,0 0,5V19A2,2 0 0,0 2,21H17C17.69,21 18.23,20.64 18.59,20.11L24,12L18.59,3.88C18.23,3.35 17.69,3 17,3H2M2,5H17L21.72,12L17,19H2V5Z" /></svg>
</svg>
<svg id="mdi:chevron-double-down">
<svg xmlns="http://www.w3.org/2000/svg" id="mdi-chevron-double-down" viewBox="0 0 24 24"><path d="M16.59,5.59L18,7L12,13L6,7L7.41,5.59L12,10.17L16.59,5.59M16.59,11.59L18,13L12,19L6,13L7.41,11.59L12,16.17L16.59,11.59Z" /></svg>
</svg>
<svg id="mdi:chevron-double-left">
<svg xmlns="http://www.w3.org/2000/svg" id="mdi-chevron-double-left" viewBox="0 0 24 24"><path d="M18.41,7.41L17,6L11,12L17,18L18.41,16.59L13.83,12L18.41,7.41M12.41,7.41L11,6L5,12L11,18L12.41,16.59L7.83,12L12.41,7.41Z" /></svg>
</svg>
<svg id="mdi:chevron-double-right">
<svg xmlns="http://www.w3.org/2000/svg" id="mdi-chevron-double-right" viewBox="0 0 24 24"><path d="M5.59,7.41L7,6L13,12L7,18L5.59,16.59L10.17,12L5.59,7.41M11.59,7.41L13,6L19,12L13,18L11.59,16.59L16.17,12L11.59,7.41Z" /></svg>
</svg>
<svg id="mdi:chevron-double-up">
<svg xmlns="http://www.w3.org/2000/svg" id="mdi-chevron-double-up" viewBox="0 0 24 24"><path d="M7.41,18.41L6,17L12,11L18,17L16.59,18.41L12,13.83L7.41,18.41M7.41,12.41L6,11L12,5L18,11L16.59,12.41L12,7.83L7.41,12.41Z" /></svg>
</svg>
<svg id="mdi:close-box">
<svg xmlns="http://www.w3.org/2000/svg" id="mdi-close-box" viewBox="0 0 24 24"><path d="M19,3H16.3H7.7H5A2,2 0 0,0 3,5V7.7V16.4V19A2,2 0 0,0 5,21H7.7H16.4H19A2,2 0 0,0 21,19V16.3V7.7V5A2,2 0 0,0 19,3M15.6,17L12,13.4L8.4,17L7,15.6L10.6,12L7,8.4L8.4,7L12,10.6L15.6,7L17,8.4L13.4,12L17,15.6L15.6,17Z" /></svg>
</svg>
<svg id="mdi:content-copy">
<svg xmlns="http://www.w3.org/2000/svg" id="mdi-content-copy" viewBox="0 0 24 24"><path d="M19,21H8V7H19M19,5H8A2,2 0 0,0 6,7V21A2,2 0 0,0 8,23H19A2,2 0 0,0 21,21V7A2,2 0 0,0 19,5M16,1H4A2,2 0 0,0 2,3V17H4V3H16V1Z" /></svg>
</svg>
<svg id="mdi:content-cut">
<svg xmlns="http://www.w3.org/2000/svg" id="mdi-content-cut" viewBox="0 0 24 24"><path d="M19,3L13,9L15,11L22,4V3M12,12.5A0.5,0.5 0 0,1 11.5,12A0.5,0.5 0 0,1 12,11.5A0.5,0.5 0 0,1 12.5,12A0.5,0.5 0 0,1 12,12.5M6,20A2,2 0 0,1 4,18C4,16.89 4.9,16 6,16A2,2 0 0,1 8,18C8,19.11 7.1,20 6,20M6,8A2,2 0 0,1 4,6C4,4.89 4.9,4 6,4A2,2 0 0,1 8,6C8,7.11 7.1,8 6,8M9.64,7.64C9.87,7.14 10,6.59 10,6A4,4 0 0,0 6,2A4,4 0 0,0 2,6A4,4 0 0,0 6,10C6.59,10 7.14,9.87 7.64,9.64L10,12L7.64,14.36C7.14,14.13 6.59,14 6,14A4,4 0 0,0 2,18A4,4 0 0,0 6,22A4,4 0 0,0 10,18C10,17.41 9.87,16.86 9.64,16.36L12,14L19,21H22V20L9.64,7.64Z" /></svg>
</svg>
<svg id="mdi:content-paste">
<svg xmlns="http://www.w3.org/2000/svg" id="mdi-content-paste" viewBox="0 0 24 24"><path d="M19,20H5V4H7V7H17V4H19M12,2A1,1 0 0,1 13,3A1,1 0 0,1 12,4A1,1 0 0,1 11,3A1,1 0 0,1 12,2M19,2H14.82C14.4,0.84 13.3,0 12,0C10.7,0 9.6,0.84 9.18,2H5A2,2 0 0,0 3,4V20A2,2 0 0,0 5,22H19A2,2 0 0,0 21,20V4A2,2 0 0,0 19,2Z" /></svg>
</svg>
<svg id="mdi:gesture-tap-hold">
<svg xmlns="http://www.w3.org/2000/svg" id="mdi-gesture-tap-hold" viewBox="0 0 24 24"><path d="M10,9A1,1 0 0,1 11,8A1,1 0 0,1 12,9V13.47L13.21,13.6L18.15,15.79C18.68,16.03 19,16.56 19,17.14V21.5C18.97,22.32 18.32,22.97 17.5,23H11C10.62,23 10.26,22.85 10,22.57L5.1,18.37L5.84,17.6C6.03,17.39 6.3,17.28 6.58,17.28H6.8L10,19V9M9,12.44V9A2,2 0 0,1 11,7A2,2 0 0,1 13,9V12.44C14.19,11.75 15,10.47 15,9A4,4 0 0,0 11,5A4,4 0 0,0 7,9C7,10.47 7.81,11.75 9,12.44Z" /></svg>
</svg>
<svg id="mdi:keyboard-esc">
<svg xmlns="http://www.w3.org/2000/svg" id="mdi-keyboard-esc" viewBox="0 0 24 24"><path d="M1 7H7V9H3V11H7V13H3V15H7V17H1V7M11 7H15V9H11V11H13C14.11 11 15 11.9 15 13V15C15 16.11 14.11 17 13 17H9V15H13V13H11C9.9 13 9 12.11 9 11V9C9 7.9 9.9 7 11 7M19 7H21C22.11 7 23 7.9 23 9V10H21V9H19V15H21V14H23V15C23 16.11 22.11 17 21 17H19C17.9 17 17 16.11 17 15V9C17 7.9 17.9 7 19 7Z" /></svg>
</svg>
<svg id="mdi:keyboard-return">
<svg xmlns="http://www.w3.org/2000/svg" id="mdi-keyboard-return" viewBox="0 0 24 24"><path d="M19,7V11H5.83L9.41,7.41L8,6L2,12L8,18L9.41,16.58L5.83,13H21V7H19Z" /></svg>
</svg>
<svg id="mdi:keyboard-tab">
<svg xmlns="http://www.w3.org/2000/svg" id="mdi-keyboard-tab" viewBox="0 0 24 24"><path d="M20,18H22V6H20M11.59,7.41L15.17,11H1V13H15.17L11.59,16.58L13,18L19,12L13,6L11.59,7.41Z" /></svg>
</svg>
<svg id="mdi:keyboard-tab-reverse">
<svg xmlns="http://www.w3.org/2000/svg" id="mdi-keyboard-tab-reverse" viewBox="0 0 24 24"><path d="M4 6H2V18H4M11 6L5 12L11 18L12.41 16.58L8.83 13H23V11H8.83L12.41 7.41L11 6Z" /></svg>
</svg>
<svg id="mdi:label-variant-outline">
<svg xmlns="http://www.w3.org/2000/svg" id="mdi-label-variant-outline" viewBox="0 0 24 24"><path d="M6.5,17H15L18.5,12L15,7H6.5L10,12L6.5,17M15,19H3L7.5,12L3,5H15C15.69,5 16.23,5.3 16.64,5.86L21,12L16.64,18.14C16.23,18.7 15.69,19 15,19Z" /></svg>
</svg>
<svg id="mdi:mouse">
<svg xmlns="http://www.w3.org/2000/svg" id="mdi-mouse" viewBox="0 0 24 24"><path d="M11,1.07C7.05,1.56 4,4.92 4,9H11M4,15A8,8 0 0,0 12,23A8,8 0 0,0 20,15V11H4M13,1.07V9H20C20,4.92 16.94,1.56 13,1.07Z" /></svg>
</svg>
<svg id="mdi:transfer-down">
<svg xmlns="http://www.w3.org/2000/svg" id="mdi-transfer-down" viewBox="0 0 24 24"><path d="M16,3V5H8V3H16M16,7V9H8V7H16M16,11V13H8V11H16M5,15H19L12,22L5,15Z" /></svg>
</svg>
<svg id="mdi:transfer-up">
<svg xmlns="http://www.w3.org/2000/svg" id="mdi-transfer-up" viewBox="0 0 24 24"><path d="M8,21V19H16V21H8M8,17V15H16V17H8M8,13V11H16V13H8M19,9H5L12,2L19,9Z" /></svg>
</svg>
</defs>/* end glyphs */
<style>/* inherit to force styles through use tags */
svg path {
    fill: inherit;
}

/* font and background color specifications */
svg.keymap {
    /*
     * ====================
     * Theme Variables
     * ====================
     */

    --logo-path: none;
    --logo-size: 12%;
    --logo-position: 49.5% 5%;

    /* === Colors === */

    --color--material--blue--50: rgb(227, 242, 253);
    --color--material--blue--100: rgb(187, 222, 251);
    --color--material--blue--200: rgb(144, 202, 249);
    --color--material--blue--300: rgb(100, 181, 246);
    --color--material--blue--400: rgb(66, 165, 245);
    --color--material--blue--500: rgb(33, 150, 243);
    --color--material--blue--600: rgb(30, 136, 229);
    --color--material--blue--700: rgb(25, 118, 210);
    --color--material--blue--800: rgb(21, 101, 192);
    --color--material--blue--900: rgb(13, 71, 161);
    --color--material--blue--a100: rgb(130, 177, 255);
    --color--material--blue--a200: rgb(68, 138, 255);
    --color--material--blue--a400: rgb(41, 121, 255);
    --color--material--blue--a700: rgb(41, 98, 255);

    --color--material--blue-gray--50: rgb(236, 239, 241);
    --color--material--blue-gray--100: rgb(207, 216, 220);
    --color--material--blue-gray--200: rgb(176, 190, 197);
    --color--material--blue-gray--300: rgb(144, 164, 174);
    --color--material--blue-gray--400: rgb(120, 144, 156);
    --color--material--blue-gray--500: rgb(96, 125, 139);
    --color--material--blue-gray--600: rgb(84, 110, 122);
    --color--material--blue-gray--700: rgb(69, 90, 100);
    --color--material--blue-gray--800: rgb(55, 71, 79);
    --color--material--blue-gray--900: rgb(38, 50, 56);

    --color--material--blue-light--50: rgb(225, 245, 254);
    --color--material--blue-light--100: rgb(179, 229, 252);
    --color--material--blue-light--200: rgb(129, 212, 250);
    --color--material--blue-light--300: rgb(79, 195, 247);
    --color--material--blue-light--400: rgb(41, 182, 246);
    --color--material--blue-light--500: rgb(3, 169, 244);
    --color--material--blue-light--600: rgb(3, 155, 229);
    --color--material--blue-light--700: rgb(2, 136, 209);
    --color--material--blue-light--800: rgb(2, 119, 189);
    --color--material--blue-light--900: rgb(1, 87, 155);
    --color--material--blue-light--a100: rgb(128, 216, 255);
    --color--material--blue-light--a200: rgb(64, 196, 255);
    --color--material--blue-light--a400: rgb(0, 176, 255);
    --color--material--blue-light--a700: rgb(0, 145, 234);

    --color--material--purple--50: rgb(243, 229, 245);
    --color--material--purple--100: rgb(225, 190, 231);
    --color--material--purple--200: rgb(206, 147, 216);
    --color--material--purple--300: rgb(186, 104, 200);
    --color--material--purple--400: rgb(171, 71, 188);
    --color--material--purple--500: rgb(156, 39, 176);
    --color--material--purple--600: rgb(142, 36, 170);
    --color--material--purple--700: rgb(123, 31, 162);
    --color--material--purple--800: rgb(106, 27, 154);
    --color--material--purple--900: rgb(74, 20, 140);
    --color--material--purple--a100: rgb(234, 128, 252);
    --color--material--purple--a200: rgb(224, 64, 251);
    --color--material--purple--a400: rgb(213, 0, 249);
    --color--material--purple--a700: rgb(170, 0, 255);

    --color--material--red--50: rgb(255, 235, 238);
    --color--material--red--100: rgb(255, 205, 210);
    --color--material--red--200: rgb(239, 154, 154);
    --color--material--red--300: rgb(229, 115, 115);
    --color--material--red--400: rgb(239, 83, 80);
    --color--material--red--500: rgb(244, 67, 54);
    --color--material--red--600: rgb(229, 57, 53);
    --color--material--red--700: rgb(211, 47, 47);
    --color--material--red--800: rgb(198, 40, 40);
    --color--material--red--900: rgb(183, 28, 28);
    --color--material--red--a100: rgb(255, 138, 128);
    --color--material--red--a200: rgb(255, 82, 82);
    --color--material--red--a400: rgb(255, 23, 68);
    --color--material--red--a700: rgb(213, 0, 0);

    --color--material--teal--50: rgb(224, 242, 241);
    --color--material--teal--100: rgb(178, 223, 219);
    --color--material--teal--200: rgb(128, 203, 196);
    --color--material--teal--300: rgb(77, 182, 172);
    --color--material--teal--400: rgb(38, 166, 154);
    --color--material--teal--500: rgb(0, 150, 136);
    --color--material--teal--600: rgb(0, 137, 123);
    --color--material--teal--700: rgb(0, 121, 107);
    --color--material--teal--800: rgb(0, 105, 92);
    --color--material--teal--900: rgb(0, 77, 64);
    --color--material--teal--a100: rgb(167, 255, 235);
    --color--material--teal--a200: rgb(100, 255, 218);
    --color--material--teal--a400: rgb(29, 233, 182);
    --color--material--teal--a700: rgb(0, 191, 165);

    --color--material--yellow--50: rgb(255, 253, 231);
    --color--material--yellow--100: rgb(255, 249, 196);
    --color--material--yellow--200: rgb(255, 245, 157);
    --color--material--yellow--300: rgb(255, 241, 118);
    --color--material--yellow--400: rgb(255, 238, 88);
    --color--material--yellow--500: rgb(255, 235, 59);
    --color--material--yellow--600: rgb(253, 216, 53);
    --color--material--yellow--700: rgb(251, 192, 45);
    --color--material--yellow--800: rgb(249, 168, 37);
    --color--material--yellow--900: rgb(245, 127, 23);
    --color--material--yellow--a100: rgb(255, 255, 141);
    --color--material--yellow--a200: rgb(255, 255, 0);
    --color--material--yellow--a400: rgb(255, 234, 0);
    --color--material--yellow--a700: rgb(255, 214, 0);

    --color--turquoise--500: rgb(51, 204, 204);

    --color--bg: transparent;
    --color--text: var(--color--material--blue-gray--900);

    --color--layer--text: var(--color--material--blue-gray--400);

    --color--key--bg: var(--color--material--blue-gray--50);
    --color--key--border: white;
    --color--key--text--tap: var(--color--text);
    --color--key--text--shifted: var(--color--material--blue-gray--400);
    --color--key--text--hold: var(--color--material--blue-gray--400);

    --color--combo--bg: var(--color--material--blue-gray--100);
    --color--combo--border: var(--color--combo--bg);
    --color--combo--dendron: var(--color--combo--border);
    --color--combo--text--tap: var(--color--material--blue-gray--800);
    --color--combo--text--shifted: var(--color--material--blue-gray--400);
    --color--combo--text--hold: var(--color--combo--text--tap);

    /*
     * ====================
     * /End Theme Variables
     * ====================
     */

    font-family: system-ui, sans-serif;
    font-size: 20px;
    font-weight: 600;
    font-kerning: normal;
    text-rendering: optimizeLegibility;
    fill: var(--color--text);
    background-color: var(--color--bg);
    background-image: var(--logo-path);
    background-repeat: no-repeat;
    background-position: var(--logo-position);
    background-size: var(--logo-size) auto;
}

rect,
path {
  shape-rendering: geometricPrecision;
}

text {
    text-anchor: middle;
    dominant-baseline: middle;
    line-height: 1;
}

/* Layer labels */
text.label {
    font-size: 36px;
    text-anchor: center;
    paint-order: stroke;
    fill: var(--color--layer--text);
    translate: 600px 155px;
}

/* Keys */
rect.key,
rect.combo {
    fill: var(--color--key--bg);
    stroke: var(--color--key--border);
}
rect.key.held {
    fill: var(--color--material--blue-gray--500);
    stroke: var(--color-material--blue-gray-100);
}
.tap {
    fill: var(--color--key--text--tap);
}
.shifted,
.hold {
    font-size: 16px;
    text-anchor: middle;
}

.shifted {
    dominant-baseline: hanging;
    fill: var(--color--key--text--shifted);
    translate: 26px 2px;
}
.shifted.glyph {
    translate: 26px 0px;
}

.hold {
    dominant-baseline: ideographic;
    fill: var(--color--key--text--hold);
    translate: 20px 4px;
}
.hold.glyph {
    translate: 20px 2px;
}

/* homerow mods red */
.key.mdi\:apple-keyboard-command,
.key.mdi\:apple-keyboard-control,
.key.mdi\:apple-keyboard-option,
.key.mdi\:apple-keyboard-shift {
   --color--key--text--hold: var(--color--material--red--300);
}


/*
 * Combos
 */
.combo {
  --color--key--bg: var(--color--combo--bg);
  --color--key--border: var(--color--combo--border);
  --color--key--text--tap: var(--color--combo--text--tap);
  --color--key--text--shifted: var(--color--combo--text--shifted);
  --color--key--text--hold: var(--color--combo--text--hold);
}
rect.combo {
  opacity: 0.8;
  stroke-width: 0;
}
path.combo {
  stroke-width: 1;
  stroke: var(--color--combo--dendron);
  fill: none;
}
.combo.tap {
  font-size: 16px;
}
.combo.shifted {
  font-size: 13px;
  translate: -9px -2px;
}
.combo.shifted.glyph {
  translate: -9px -3px;
}
.combo.hold {
  font-size: 16px;
  translate: 0 0;
}

/*
 * Transparent, None, and Ghost Keys
 */
.trans,
.none,
.ghost {
  opacity: 0.4;
}

/*
 * Overrides
 */
/* thumb keys */
.keypos-30 .key,
.keypos-31 .key,
.keypos-32 .key,
.keypos-33 .key,
.keypos-34 .key,
.keypos-35 .key {
    --color--key--bg: var(--color--material--blue-gray--100);
    --color--key--border: var(--color--material--blue-gray--50);
}

# left hand
.keypos-0 .shifted,
.keypos-1 .shifted,
.keypos-2 .shifted,
.keypos-3 .shifted,
.keypos-4 .shifted,
.keypos-10 .shifted,
.keypos-11 .shifted,
.keypos-12 .shifted,
.keypos-13 .shifted,
.keypos-14 .shifted,
.keypos-20 .shifted,
.keypos-21 .shifted,
.keypos-22 .shifted,
.keypos-23 .shifted,
.keypos-24 .shifted,
.keypos-30 .shifted,
.keypos-31 .shifted,
.keypos-32 .shifted {
  translate: -26px 2px;
}

.keypos-0 .hold,
.keypos-1 .hold,
.keypos-2 .hold,
.keypos-3 .hold,
.keypos-4 .hold,
.keypos-10 .hold,
.keypos-11 .hold,
.keypos-12 .hold,
.keypos-13 .hold,
.keypos-14 .hold,
.keypos-20 .hold,
.keypos-21 .hold,
.keypos-22 .hold,
.keypos-23 .hold,
.keypos-24 .hold,
.keypos-30 .hold,
.keypos-31 .hold,
.keypos-32 .hold {
  translate: -26px 4px;
}

.keypos-0 .hold.glyph,
.keypos-1 .hold.glyph,
.keypos-2 .hold.glyph,
.keypos-3 .hold.glyph,
.keypos-4 .hold.glyph,
.keypos-10 .hold.glyph,
.keypos-11 .hold.glyph,
.keypos-12 .hold.glyph,
.keypos-13 .hold.glyph,
.keypos-14 .hold.glyph,
.keypos-20 .hold.glyph,
.keypos-21 .hold.glyph,
.keypos-22 .hold.glyph,
.keypos-23 .hold.glyph,
.keypos-24 .hold.glyph,
.keypos-30 .hold.glyph,
.keypos-31 .hold.glyph,
.keypos-32 .hold.glyph,
.keypos-38 .hold.glyph {
  translate: -26px 2px;
}

.shifted.mdi\:alpha-w-box {
  translate: 0px 8px;
}
.keypos-38 .shifted.mdi\:alpha-w-box,
.keypos-39 .shifted.mdi\:alpha-w-box {
  translate: 0px 20px;
}

.hold.mdi\:gesture-tap-hold {
  translate: 0px -8px;
}
.keypos-38 .hold.mdi\:gesture-tap-hold,
.keypos-39 .hold.mdi\:gesture-tap-hold {
  translate: 0px -20px;
}

.key .mdi\:toggle-switch ~ .mdi\:usb {
  translate: -22px 26px;
}
.key .mdi\:toggle-switch ~ .mdi\:bluetooth {
  translate: 22px -26px;
}
</style>
<g transform="translate(0, 0)" class="layer-nav">
<text x="0" y="0" class="label" id="nav">nav</text>
<g transform="translate(0, 0)">
<g transform="translate(50, 138) rotate(-17.0)" class="key trans keypos-0">
<rect rx="4" ry="4" x="-38" y="-38" width="77" height="77" class="key trans"/>
<text x="0" y="0" class="key trans tap">▽</text>
</g>
<g transform="translate(147, 81) rotate(-10.0)" class="key trans keypos-1">
<rect rx="4" ry="4" x="-38" y="-38" width="77" height="77" class="key trans"/>
<text x="0" y="0" class="key trans tap">▽</text>
</g>
<g transform="translate(243, 43) rotate(-5.0)" class="key keypos-2">
<rect rx="4" ry="4" x="-38" y="-38" width="77" height="77" class="key"/>
<use href="#mdi:keyboard-tab-reverse" xlink:href="#mdi:keyboard-tab-reverse" x="-11" y="-11" height="22" width="22.0" class="key tap glyph mdi:keyboard-tab-reverse"/>
</g>
<g transform="translate(345, 62)" class="key keypos-3">
<rect rx="4" ry="4" x="-38" y="-38" width="77" height="77" class="key"/>
<use href="#mdi:apps-box" xlink:href="#mdi:apps-box" x="-11" y="-11" height="22" width="22.0" class="key tap glyph mdi:apps-box"/>
</g>
<g transform="translate(430, 75)" class="key trans keypos-4">
<rect rx="4" ry="4" x="-38" y="-38" width="77" height="77" class="key trans"/>
<text x="0" y="0" class="key trans tap">▽</text>
</g>
<g transform="translate(774, 75)" class="key keypos-5">
<rect rx="4" ry="4" x="-38" y="-38" width="77" height="77" class="key"/>
<use href="#mdi:transfer-up" xlink:href="#mdi:transfer-up" x="-11" y="-11" height="22" width="22.0" class="key tap glyph mdi:transfer-up"/>
</g>
<g transform="translate(858, 62)" class="key keypos-6">
<rect rx="4" ry="4" x="-38" y="-38" width="77" height="77" class="key"/>
<use href="#mdi:backspace" xlink:href="#mdi:backspace" x="-11" y="-11" height="22" width="22.0" class="key tap glyph mdi:backspace"/>
<use href="#mdi:backspace" xlink:href="#mdi:backspace" x="-8" y="18" height="16" width="16.0" class="key hold glyph mdi:backspace"/>
</g>
<g transform="translate(961, 43) rotate(5.0)" class="key keypos-7">
<rect rx="4" ry="4" x="-38" y="-38" width="77" height="77" class="key"/>
<use href="#mdi:arrow-up-bold" xlink:href="#mdi:arrow-up-bold" x="-11" y="-11" height="22" width="22.0" class="key tap glyph mdi:arrow-up-bold"/>
<use href="#mdi:chevron-double-up" xlink:href="#mdi:chevron-double-up" x="-8" y="18" height="16" width="16.0" class="key hold glyph mdi:chevron-double-up"/>
</g>
<g transform="translate(1057, 81) rotate(10.0)" class="key keypos-8">
<rect rx="4" ry="4" x="-38" y="-38" width="77" height="77" class="key"/>
<use href="#mdi:backspace-reverse-outline" xlink:href="#mdi:backspace-reverse-outline" x="-11" y="-11" height="22" width="22.0" class="key tap glyph mdi:backspace-reverse-outline"/>
<use href="#mdi:backspace-reverse-outline" xlink:href="#mdi:backspace-reverse-outline" x="-8" y="18" height="16" width="16.0" class="key hold glyph mdi:backspace-reverse-outline"/>
</g>
<g transform="translate(1154, 138) rotate(17.0)" class="key trans keypos-9">
<rect rx="4" ry="4" x="-38" y="-38" width="77" height="77" class="key trans"/>
<text x="0" y="0" class="key trans tap">▽</text>
</g>
<g transform="translate(73, 219) rotate(-17.0)" class="key keypos-10">
<rect rx="4" ry="4" x="-38" y="-38" width="77" height="77" class="key"/>
<use href="#mdi:apple-keyboard-command" xlink:href="#mdi:apple-keyboard-command" x="-11" y="-11" height="22" width="22.0" class="key tap glyph mdi:apple-keyboard-command"/>
<use href="#mdi:gesture-tap-hold" xlink:href="#mdi:gesture-tap-hold" x="-8" y="18" height="16" width="16.0" class="key hold glyph mdi:gesture-tap-hold"/>
</g>
<g transform="translate(161, 164) rotate(-10.0)" class="key keypos-11">
<rect rx="4" ry="4" x="-38" y="-38" width="77" height="77" class="key"/>
<use href="#mdi:apple-keyboard-option" xlink:href="#mdi:apple-keyboard-option" x="-11" y="-11" height="22" width="22.0" class="key tap glyph mdi:apple-keyboard-option"/>
<use href="#mdi:gesture-tap-hold" xlink:href="#mdi:gesture-tap-hold" x="-8" y="18" height="16" width="16.0" class="key hold glyph mdi:gesture-tap-hold"/>
</g>
<g transform="translate(250, 128) rotate(-5.0)" class="key keypos-12">
<rect rx="4" ry="4" x="-38" y="-38" width="77" height="77" class="key"/>
<use href="#mdi:apple-keyboard-shift" xlink:href="#mdi:apple-keyboard-shift" x="-11" y="-11" height="22" width="22.0" class="key tap glyph mdi:apple-keyboard-shift"/>
<use href="#mdi:gesture-tap-hold" xlink:href="#mdi:gesture-tap-hold" x="-8" y="18" height="16" width="16.0" class="key hold glyph mdi:gesture-tap-hold"/>
</g>
<g transform="translate(345, 146)" class="key keypos-13">
<rect rx="4" ry="4" x="-38" y="-38" width="77" height="77" class="key"/>
<use href="#mdi:apple-keyboard-control" xlink:href="#mdi:apple-keyboard-control" x="-11" y="-11" height="22" width="22.0" class="key tap glyph mdi:apple-keyboard-control"/>
<use href="#mdi:gesture-tap-hold" xlink:href="#mdi:gesture-tap-hold" x="-8" y="18" height="16" width="16.0" class="key hold glyph mdi:gesture-tap-hold"/>
</g>
<g transform="translate(430, 160)" class="key trans keypos-14">
<rect rx="4" ry="4" x="-38" y="-38" width="77" height="77" class="key trans"/>
<text x="0" y="0" class="key trans tap">▽</text>
</g>
<g transform="translate(774, 160)" class="key keypos-15">
<rect rx="4" ry="4" x="-38" y="-38" width="77" height="77" class="key"/>
<use href="#mdi:transfer-down" xlink:href="#mdi:transfer-down" x="-11" y="-11" height="22" width="22.0" class="key tap glyph mdi:transfer-down"/>
</g>
<g transform="translate(858, 146)" class="key keypos-16">
<rect rx="4" ry="4" x="-38" y="-38" width="77" height="77" class="key"/>
<use href="#mdi:arrow-left-bold" xlink:href="#mdi:arrow-left-bold" x="-11" y="-11" height="22" width="22.0" class="key tap glyph mdi:arrow-left-bold"/>
<use href="#mdi:chevron-double-left" xlink:href="#mdi:chevron-double-left" x="-8" y="18" height="16" width="16.0" class="key hold glyph mdi:chevron-double-left"/>
</g>
<g transform="translate(954, 128) rotate(5.0)" class="key keypos-17">
<rect rx="4" ry="4" x="-38" y="-38" width="77" height="77" class="key"/>
<use href="#mdi:arrow-down-bold" xlink:href="#mdi:arrow-down-bold" x="-11" y="-11" height="22" width="22.0" class="key tap glyph mdi:arrow-down-bold"/>
<use href="#mdi:chevron-double-down" xlink:href="#mdi:chevron-double-down" x="-8" y="18" height="16" width="16.0" class="key hold glyph mdi:chevron-double-down"/>
</g>
<g transform="translate(1043, 164) rotate(10.0)" class="key keypos-18">
<rect rx="4" ry="4" x="-38" y="-38" width="77" height="77" class="key"/>
<use href="#mdi:arrow-right-bold" xlink:href="#mdi:arrow-right-bold" x="-11" y="-11" height="22" width="22.0" class="key tap glyph mdi:arrow-right-bold"/>
<use href="#mdi:chevron-double-right" xlink:href="#mdi:chevron-double-right" x="-8" y="18" height="16" width="16.0" class="key hold glyph mdi:chevron-double-right"/>
</g>
<g transform="translate(1130, 219) rotate(17.0)" class="key enter keypos-19">
<rect rx="4" ry="4" x="-38" y="-38" width="77" height="77" class="key enter"/>
<use href="#mdi:keyboard-return" xlink:href="#mdi:keyboard-return" x="-11" y="-11" height="22" width="22.0" class="key enter tap glyph mdi:keyboard-return"/>
</g>
<g transform="translate(97, 300) rotate(-17.0)" class="key trans keypos-20">
<rect rx="4" ry="4" x="-38" y="-38" width="77" height="77" class="key trans"/>
<text x="0" y="0" class="key trans tap">▽</text>
</g>
<g transform="translate(175, 247) rotate(-10.0)" class="key trans keypos-21">
<rect rx="4" ry="4" x="-38" y="-38" width="77" height="77" class="key trans"/>
<text x="0" y="0" class="key trans tap">▽</text>
</g>
<g transform="translate(257, 212) rotate(-5.0)" class="key trans keypos-22">
<rect rx="4" ry="4" x="-38" y="-38" width="77" height="77" class="key trans"/>
<text x="0" y="0" class="key trans tap">▽</text>
</g>
<g transform="translate(345, 231)" class="key trans keypos-23">
<rect rx="4" ry="4" x="-38" y="-38" width="77" height="77" class="key trans"/>
<text x="0" y="0" class="key trans tap">▽</text>
</g>
<g transform="translate(430, 244)" class="key trans keypos-24">
<rect rx="4" ry="4" x="-38" y="-38" width="77" height="77" class="key trans"/>
<text x="0" y="0" class="key trans tap">▽</text>
</g>
<g transform="translate(774, 244)" class="key keypos-25">
<rect rx="4" ry="4" x="-38" y="-38" width="77" height="77" class="key"/>
<text x="0" y="0" class="key tap">INS</text>
</g>
<g transform="translate(858, 231)" class="key keypos-26">
<rect rx="4" ry="4" x="-38" y="-38" width="77" height="77" class="key"/>
<use href="#mdi:keyboard-tab" xlink:href="#mdi:keyboard-tab" x="-11" y="-11" height="22" width="22.0" class="key tap glyph mdi:keyboard-tab"/>
</g>
<g transform="translate(947, 212) rotate(5.0)" class="key keypos-27">
<rect rx="4" ry="4" x="-38" y="-38" width="77" height="77" class="key"/>
<text x="0" y="0" class="key tap">&lt;</text>
</g>
<g transform="translate(1029, 247) rotate(10.0)" class="key keypos-28">
<rect rx="4" ry="4" x="-38" y="-38" width="77" height="77" class="key"/>
<text x="0" y="0" class="key tap">&gt;</text>
</g>
<g transform="translate(1107, 300) rotate(17.0)" class="key trans keypos-29">
<rect rx="4" ry="4" x="-38" y="-38" width="77" height="77" class="key trans"/>
<text x="0" y="0" class="key trans tap">▽</text>
</g>
<g transform="translate(356, 359) rotate(15.0)" class="key keypos-30">
<rect rx="4" ry="4" x="-38" y="-38" width="77" height="77" class="key"/>
<use href="#mdi:backspace" xlink:href="#mdi:backspace" x="-11" y="-11" height="22" width="22.0" class="key tap glyph mdi:backspace"/>
<use href="#mdi:backspace-reverse-outline" xlink:href="#mdi:backspace-reverse-outline" x="-8" y="-34" height="16" width="16.0" class="key shifted glyph mdi:backspace-reverse-outline"/>
</g>
<g transform="translate(442, 396) rotate(30.0)" class="key trans keypos-31">
<rect rx="4" ry="4" x="-38" y="-38" width="77" height="77" class="key trans"/>
<text x="0" y="0" class="key trans tap">▽</text>
</g>
<g transform="translate(515, 456) rotate(45.0)" class="key trans keypos-32">
<rect rx="4" ry="4" x="-38" y="-38" width="77" height="77" class="key trans"/>
<text x="0" y="0" class="key trans tap">▽</text>
</g>
<g transform="translate(688, 456) rotate(-45.0)" class="key trans keypos-33">
<rect rx="4" ry="4" x="-38" y="-38" width="77" height="77" class="key trans"/>
<text x="0" y="0" class="key trans tap">▽</text>
</g>
<g transform="translate(762, 396) rotate(-30.0)" class="key held keypos-34">
<rect rx="4" ry="4" x="-38" y="-38" width="77" height="77" class="key held"/>
<use href="#mdi:close-box" xlink:href="#mdi:close-box" x="-11" y="-11" height="22" width="22.0" class="key held tap glyph mdi:close-box"/>
</g>
<g transform="translate(848, 359) rotate(-15.0)" class="key keypos-35">
<rect rx="4" ry="4" x="-38" y="-38" width="77" height="77" class="key"/>
<use href="#mdi:mouse" xlink:href="#mdi:mouse" x="-11" y="-11" height="22" width="22.0" class="key tap glyph mdi:mouse"/>
<use href="#mdi:alpha-w-box" xlink:href="#mdi:alpha-w-box" x="-8" y="-34" height="16" width="16.0" class="key shifted glyph mdi:alpha-w-box"/>
</g>
<g class="combo combopos-0">
<rect rx="4" ry="4" x="180" y="47" width="30" height="30" class="combo"/>
<use href="#mdi:keyboard-esc" xlink:href="#mdi:keyboard-esc" x="184" y="51" height="22" width="22.0" class="combo tap glyph mdi:keyboard-esc"/>
</g>
<g class="combo combopos-1">
<rect rx="4" ry="4" x="279" y="37" width="30" height="30" class="combo"/>
<use href="#mdi:mouse" xlink:href="#mdi:mouse" x="283" y="41" height="22" width="22.0" class="combo tap glyph mdi:mouse"/>
<use href="#mdi:alpha-w-box" xlink:href="#mdi:alpha-w-box" x="286" y="41" height="16" width="16.0" class="combo shifted glyph mdi:alpha-w-box"/>
</g>
<g class="combo combopos-2">
<rect rx="4" ry="4" x="190" y="131" width="30" height="30" class="combo"/>
<use href="#mdi:keyboard-tab" xlink:href="#mdi:keyboard-tab" x="194" y="135" height="22" width="22.0" class="combo tap glyph mdi:keyboard-tab"/>
</g>
<g class="combo combopos-3">
<rect rx="4" ry="4" x="283" y="122" width="30" height="30" class="combo"/>
<use href="#mdi:label-variant-outline" xlink:href="#mdi:label-variant-outline" x="287" y="126" height="22" width="22.0" class="combo tap glyph mdi:label-variant-outline"/>
</g>
<g class="combo combopos-4">
<path d="M260,286 h-79 a6.0,6.0 0 0 1 -6.0,-6.0 v-6" class="combo"/>
<path d="M260,286 h79 a6.0,6.0 0 0 0 6.0,-6.0 v-23" class="combo"/>
<rect rx="4" ry="4" x="245" y="271" width="30" height="30" class="combo"/>
<use href="#mdi:content-cut" xlink:href="#mdi:content-cut" x="249" y="275" height="22" width="22.0" class="combo tap glyph mdi:content-cut"/>
</g>
<g class="combo combopos-5">
<rect rx="4" ry="4" x="201" y="215" width="30" height="30" class="combo"/>
<use href="#mdi:content-copy" xlink:href="#mdi:content-copy" x="205" y="219" height="22" width="22.0" class="combo tap glyph mdi:content-copy"/>
</g>
<g class="combo combopos-6">
<rect rx="4" ry="4" x="286" y="206" width="30" height="30" class="combo"/>
<use href="#mdi:content-paste" xlink:href="#mdi:content-paste" x="290" y="210" height="22" width="22.0" class="combo tap glyph mdi:content-paste"/>
</g>
<g class="combo backspace combopos-7">
<rect rx="4" ry="4" x="894" y="37" width="30" height="30" class="combo backspace"/>
<use href="#mdi:backspace" xlink:href="#mdi:backspace" x="898" y="41" height="22" width="22.0" class="combo backspace tap glyph mdi:backspace"/>
</g>
<g class="combo combopos-8">
<rect rx="4" ry="4" x="994" y="47" width="30" height="30" class="combo"/>
<use href="#mdi:backspace-reverse-outline" xlink:href="#mdi:backspace-reverse-outline" x="998" y="51" height="22" width="22.0" class="combo tap glyph mdi:backspace-reverse-outline"/>
</g>
<g class="combo combopos-9">
<rect rx="4" ry="4" x="888" y="206" width="30" height="30" class="combo"/>
<text x="903" y="221" class="combo tap">{</text>
</g>
<g class="combo combopos-10">
<rect rx="4" ry="4" x="973" y="215" width="30" height="30" class="combo"/>
<text x="988" y="230" class="combo tap">}</text>
</g>
</g>
</g>
</svg>
