<svg width="1204" height="513" viewBox="0 0 1204 513" class="keymap" xmlns="http://www.w3.org/2000/svg" xmlns:xlink="http://www.w3.org/1999/xlink">
<defs>/* start glyphs */
<svg id="mdi:alpha-w-box">
<svg xmlns="http://www.w3.org/2000/svg" id="mdi-alpha-w-box" viewBox="0 0 24 24"><path d="M9,17H15A2,2 0 0,0 17,15V7H15V15H13V8H11V15H9V7H7V15A2,2 0 0,0 9,17M5,3H19A2,2 0 0,1 21,5V19A2,2 0 0,1 19,21H5A2,2 0 0,1 3,19V5A2,2 0 0,1 5,3Z" /></svg>
</svg>
<svg id="mdi:backspace">
<svg xmlns="http://www.w3.org/2000/svg" id="mdi-backspace" viewBox="0 0 24 24"><path d="M22,3H7C6.31,3 5.77,3.35 5.41,3.88L0,12L5.41,20.11C5.77,20.64 6.31,21 7,21H22A2,2 0 0,0 24,19V5A2,2 0 0,0 22,3M19,15.59L17.59,17L14,13.41L10.41,17L9,15.59L12.59,12L9,8.41L10.41,7L14,10.59L17.59,7L19,8.41L15.41,12" /></svg>
</svg>
<svg id="mdi:backspace-reverse-outline">
<svg xmlns="http://www.w3.org/2000/svg" id="mdi-backspace-reverse-outline" viewBox="0 0 24 24"><path d="M5,15.59L6.41,17L10,13.41L13.59,17L15,15.59L11.41,12L15,8.41L13.59,7L10,10.59L6.41,7L5,8.41L8.59,12L5,15.59M2,3A2,2 0 0,0 0,5V19A2,2 0 0,0 2,21H17C17.69,21 18.23,20.64 18.59,20.11L24,12L18.59,3.88C18.23,3.35 17.69,3 17,3H2M2,5H17L21.72,12L17,19H2V5Z" /></svg>
</svg>
<svg id="mdi:backup-restore">
<svg xmlns="http://www.w3.org/2000/svg" id="mdi-backup-restore" viewBox="0 0 24 24"><path d="M12,3A9,9 0 0,0 3,12H0L4,16L8,12H5A7,7 0 0,1 12,5A7,7 0 0,1 19,12A7,7 0 0,1 12,19C10.5,19 9.09,18.5 7.94,17.7L6.5,19.14C8.04,20.3 9.94,21 12,21A9,9 0 0,0 21,12A9,9 0 0,0 12,3M14,12A2,2 0 0,0 12,10A2,2 0 0,0 10,12A2,2 0 0,0 12,14A2,2 0 0,0 14,12Z" /></svg>
</svg>
<svg id="mdi:bluetooth-connect">
<svg xmlns="http://www.w3.org/2000/svg" id="mdi-bluetooth-connect" viewBox="0 0 24 24"><path d="M19,10L17,12L19,14L21,12M14.88,16.29L13,18.17V14.41M13,5.83L14.88,7.71L13,9.58M17.71,7.71L12,2H11V9.58L6.41,5L5,6.41L10.59,12L5,17.58L6.41,19L11,14.41V22H12L17.71,16.29L13.41,12M7,12L5,10L3,12L5,14L7,12Z" /></svg>
</svg>
<svg id="mdi:bluetooth-off">
<svg xmlns="http://www.w3.org/2000/svg" id="mdi-bluetooth-off" viewBox="0 0 24 24"><path d="M13,5.83L14.88,7.71L13.28,9.31L14.69,10.72L17.71,7.7L12,2H11V7.03L13,9.03M5.41,4L4,5.41L10.59,12L5,17.59L6.41,19L11,14.41V22H12L16.29,17.71L18.59,20L20,18.59M13,18.17V14.41L14.88,16.29" /></svg>
</svg>
<svg id="mdi:mouse">
<svg xmlns="http://www.w3.org/2000/svg" id="mdi-mouse" viewBox="0 0 24 24"><path d="M11,1.07C7.05,1.56 4,4.92 4,9H11M4,15A8,8 0 0,0 12,23A8,8 0 0,0 20,15V11H4M13,1.07V9H20C20,4.92 16.94,1.56 13,1.07Z" /></svg>
</svg>
<svg id="mdi:progress-download">
<svg xmlns="http://www.w3.org/2000/svg" id="mdi-progress-download" viewBox="0 0 24 24"><path d="M13,2.03C17.73,2.5 21.5,6.25 21.95,11C22.5,16.5 18.5,21.38 13,21.93V19.93C16.64,19.5 19.5,16.61 19.96,12.97C20.5,8.58 17.39,4.59 13,4.05V2.05L13,2.03M11,2.06V4.06C9.57,4.26 8.22,4.84 7.1,5.74L5.67,4.26C7.19,3 9.05,2.25 11,2.06M4.26,5.67L5.69,7.1C4.8,8.23 4.24,9.58 4.05,11H2.05C2.25,9.04 3,7.19 4.26,5.67M2.06,13H4.06C4.24,14.42 4.81,15.77 5.69,16.9L4.27,18.33C3.03,16.81 2.26,14.96 2.06,13M7.1,18.37C8.23,19.25 9.58,19.82 11,20V22C9.04,21.79 7.18,21 5.67,19.74L7.1,18.37M12,16.5L7.5,12H11V8H13V12H16.5L12,16.5Z" /></svg>
</svg>
</defs>/* end glyphs */
<style>/* inherit to force styles through use tags */
svg path {
    fill: inherit;
}

/* font and background color specifications */
svg.keymap {
    /*
     * ====================
     * Theme Variables
     * ====================
     */

    --logo-path: none;
    --logo-size: 12%;
    --logo-position: 49.5% 5%;

    /* === Colors === */

    --color--material--blue--50: rgb(227, 242, 253);
    --color--material--blue--100: rgb(187, 222, 251);
    --color--material--blue--200: rgb(144, 202, 249);
    --color--material--blue--300: rgb(100, 181, 246);
    --color--material--blue--400: rgb(66, 165, 245);
    --color--material--blue--500: rgb(33, 150, 243);
    --color--material--blue--600: rgb(30, 136, 229);
    --color--material--blue--700: rgb(25, 118, 210);
    --color--material--blue--800: rgb(21, 101, 192);
    --color--material--blue--900: rgb(13, 71, 161);
    --color--material--blue--a100: rgb(130, 177, 255);
    --color--material--blue--a200: rgb(68, 138, 255);
    --color--material--blue--a400: rgb(41, 121, 255);
    --color--material--blue--a700: rgb(41, 98, 255);

    --color--material--blue-gray--50: rgb(236, 239, 241);
    --color--material--blue-gray--100: rgb(207, 216, 220);
    --color--material--blue-gray--200: rgb(176, 190, 197);
    --color--material--blue-gray--300: rgb(144, 164, 174);
    --color--material--blue-gray--400: rgb(120, 144, 156);
    --color--material--blue-gray--500: rgb(96, 125, 139);
    --color--material--blue-gray--600: rgb(84, 110, 122);
    --color--material--blue-gray--700: rgb(69, 90, 100);
    --color--material--blue-gray--800: rgb(55, 71, 79);
    --color--material--blue-gray--900: rgb(38, 50, 56);

    --color--material--blue-light--50: rgb(225, 245, 254);
    --color--material--blue-light--100: rgb(179, 229, 252);
    --color--material--blue-light--200: rgb(129, 212, 250);
    --color--material--blue-light--300: rgb(79, 195, 247);
    --color--material--blue-light--400: rgb(41, 182, 246);
    --color--material--blue-light--500: rgb(3, 169, 244);
    --color--material--blue-light--600: rgb(3, 155, 229);
    --color--material--blue-light--700: rgb(2, 136, 209);
    --color--material--blue-light--800: rgb(2, 119, 189);
    --color--material--blue-light--900: rgb(1, 87, 155);
    --color--material--blue-light--a100: rgb(128, 216, 255);
    --color--material--blue-light--a200: rgb(64, 196, 255);
    --color--material--blue-light--a400: rgb(0, 176, 255);
    --color--material--blue-light--a700: rgb(0, 145, 234);

    --color--material--purple--50: rgb(243, 229, 245);
    --color--material--purple--100: rgb(225, 190, 231);
    --color--material--purple--200: rgb(206, 147, 216);
    --color--material--purple--300: rgb(186, 104, 200);
    --color--material--purple--400: rgb(171, 71, 188);
    --color--material--purple--500: rgb(156, 39, 176);
    --color--material--purple--600: rgb(142, 36, 170);
    --color--material--purple--700: rgb(123, 31, 162);
    --color--material--purple--800: rgb(106, 27, 154);
    --color--material--purple--900: rgb(74, 20, 140);
    --color--material--purple--a100: rgb(234, 128, 252);
    --color--material--purple--a200: rgb(224, 64, 251);
    --color--material--purple--a400: rgb(213, 0, 249);
    --color--material--purple--a700: rgb(170, 0, 255);

    --color--material--red--50: rgb(255, 235, 238);
    --color--material--red--100: rgb(255, 205, 210);
    --color--material--red--200: rgb(239, 154, 154);
    --color--material--red--300: rgb(229, 115, 115);
    --color--material--red--400: rgb(239, 83, 80);
    --color--material--red--500: rgb(244, 67, 54);
    --color--material--red--600: rgb(229, 57, 53);
    --color--material--red--700: rgb(211, 47, 47);
    --color--material--red--800: rgb(198, 40, 40);
    --color--material--red--900: rgb(183, 28, 28);
    --color--material--red--a100: rgb(255, 138, 128);
    --color--material--red--a200: rgb(255, 82, 82);
    --color--material--red--a400: rgb(255, 23, 68);
    --color--material--red--a700: rgb(213, 0, 0);

    --color--material--teal--50: rgb(224, 242, 241);
    --color--material--teal--100: rgb(178, 223, 219);
    --color--material--teal--200: rgb(128, 203, 196);
    --color--material--teal--300: rgb(77, 182, 172);
    --color--material--teal--400: rgb(38, 166, 154);
    --color--material--teal--500: rgb(0, 150, 136);
    --color--material--teal--600: rgb(0, 137, 123);
    --color--material--teal--700: rgb(0, 121, 107);
    --color--material--teal--800: rgb(0, 105, 92);
    --color--material--teal--900: rgb(0, 77, 64);
    --color--material--teal--a100: rgb(167, 255, 235);
    --color--material--teal--a200: rgb(100, 255, 218);
    --color--material--teal--a400: rgb(29, 233, 182);
    --color--material--teal--a700: rgb(0, 191, 165);

    --color--material--yellow--50: rgb(255, 253, 231);
    --color--material--yellow--100: rgb(255, 249, 196);
    --color--material--yellow--200: rgb(255, 245, 157);
    --color--material--yellow--300: rgb(255, 241, 118);
    --color--material--yellow--400: rgb(255, 238, 88);
    --color--material--yellow--500: rgb(255, 235, 59);
    --color--material--yellow--600: rgb(253, 216, 53);
    --color--material--yellow--700: rgb(251, 192, 45);
    --color--material--yellow--800: rgb(249, 168, 37);
    --color--material--yellow--900: rgb(245, 127, 23);
    --color--material--yellow--a100: rgb(255, 255, 141);
    --color--material--yellow--a200: rgb(255, 255, 0);
    --color--material--yellow--a400: rgb(255, 234, 0);
    --color--material--yellow--a700: rgb(255, 214, 0);

    --color--turquoise--500: rgb(51, 204, 204);

    --color--bg: transparent;
    --color--text: var(--color--material--blue-gray--900);

    --color--layer--text: var(--color--material--blue-gray--400);

    --color--key--bg: var(--color--material--blue-gray--50);
    --color--key--border: white;
    --color--key--text--tap: var(--color--text);
    --color--key--text--shifted: var(--color--material--blue-gray--400);
    --color--key--text--hold: var(--color--material--blue-gray--400);

    --color--combo--bg: var(--color--material--blue-gray--100);
    --color--combo--border: var(--color--combo--bg);
    --color--combo--dendron: var(--color--combo--border);
    --color--combo--text--tap: var(--color--material--blue-gray--800);
    --color--combo--text--shifted: var(--color--material--blue-gray--400);
    --color--combo--text--hold: var(--color--combo--text--tap);

    /*
     * ====================
     * /End Theme Variables
     * ====================
     */

    font-family: system-ui, sans-serif;
    font-size: 20px;
    font-weight: 600;
    font-kerning: normal;
    text-rendering: optimizeLegibility;
    fill: var(--color--text);
    background-color: var(--color--bg);
    background-image: var(--logo-path);
    background-repeat: no-repeat;
    background-position: var(--logo-position);
    background-size: var(--logo-size) auto;
}

rect,
path {
  shape-rendering: geometricPrecision;
}

text {
    text-anchor: middle;
    dominant-baseline: middle;
    line-height: 1;
}

/* Layer labels */
text.label {
    font-size: 36px;
    text-anchor: center;
    paint-order: stroke;
    fill: var(--color--layer--text);
    translate: 600px 155px;
}

/* Keys */
rect.key,
rect.combo {
    fill: var(--color--key--bg);
    stroke: var(--color--key--border);
}
rect.key.held {
    fill: var(--color--material--blue-gray--500);
    stroke: var(--color-material--blue-gray-100);
}
.tap {
    fill: var(--color--key--text--tap);
}
.shifted,
.hold {
    font-size: 16px;
    text-anchor: middle;
}

.shifted {
    dominant-baseline: hanging;
    fill: var(--color--key--text--shifted);
    translate: 26px 2px;
}
.shifted.glyph {
    translate: 26px 0px;
}

.hold {
    dominant-baseline: ideographic;
    fill: var(--color--key--text--hold);
    translate: 20px 4px;
}
.hold.glyph {
    translate: 20px 2px;
}

/* homerow mods red */
.key.mdi\:apple-keyboard-command,
.key.mdi\:apple-keyboard-control,
.key.mdi\:apple-keyboard-option,
.key.mdi\:apple-keyboard-shift {
   --color--key--text--hold: var(--color--material--red--300);
}


/*
 * Combos
 */
.combo {
  --color--key--bg: var(--color--combo--bg);
  --color--key--border: var(--color--combo--border);
  --color--key--text--tap: var(--color--combo--text--tap);
  --color--key--text--shifted: var(--color--combo--text--shifted);
  --color--key--text--hold: var(--color--combo--text--hold);
}
rect.combo {
  opacity: 0.8;
  stroke-width: 0;
}
path.combo {
  stroke-width: 1;
  stroke: var(--color--combo--dendron);
  fill: none;
}
.combo.tap {
  font-size: 16px;
}
.combo.shifted {
  font-size: 13px;
  translate: -9px -2px;
}
.combo.shifted.glyph {
  translate: -9px -3px;
}
.combo.hold {
  font-size: 16px;
  translate: 0 0;
}

/*
 * Transparent, None, and Ghost Keys
 */
.trans,
.none,
.ghost {
  opacity: 0.4;
}

/*
 * Overrides
 */
/* thumb keys */
.keypos-30 .key,
.keypos-31 .key,
.keypos-32 .key,
.keypos-33 .key,
.keypos-34 .key,
.keypos-35 .key {
    --color--key--bg: var(--color--material--blue-gray--100);
    --color--key--border: var(--color--material--blue-gray--50);
}

# left hand
.keypos-0 .shifted,
.keypos-1 .shifted,
.keypos-2 .shifted,
.keypos-3 .shifted,
.keypos-4 .shifted,
.keypos-10 .shifted,
.keypos-11 .shifted,
.keypos-12 .shifted,
.keypos-13 .shifted,
.keypos-14 .shifted,
.keypos-20 .shifted,
.keypos-21 .shifted,
.keypos-22 .shifted,
.keypos-23 .shifted,
.keypos-24 .shifted,
.keypos-30 .shifted,
.keypos-31 .shifted,
.keypos-32 .shifted {
  translate: -26px 2px;
}

.keypos-0 .hold,
.keypos-1 .hold,
.keypos-2 .hold,
.keypos-3 .hold,
.keypos-4 .hold,
.keypos-10 .hold,
.keypos-11 .hold,
.keypos-12 .hold,
.keypos-13 .hold,
.keypos-14 .hold,
.keypos-20 .hold,
.keypos-21 .hold,
.keypos-22 .hold,
.keypos-23 .hold,
.keypos-24 .hold,
.keypos-30 .hold,
.keypos-31 .hold,
.keypos-32 .hold {
  translate: -26px 4px;
}

.keypos-0 .hold.glyph,
.keypos-1 .hold.glyph,
.keypos-2 .hold.glyph,
.keypos-3 .hold.glyph,
.keypos-4 .hold.glyph,
.keypos-10 .hold.glyph,
.keypos-11 .hold.glyph,
.keypos-12 .hold.glyph,
.keypos-13 .hold.glyph,
.keypos-14 .hold.glyph,
.keypos-20 .hold.glyph,
.keypos-21 .hold.glyph,
.keypos-22 .hold.glyph,
.keypos-23 .hold.glyph,
.keypos-24 .hold.glyph,
.keypos-30 .hold.glyph,
.keypos-31 .hold.glyph,
.keypos-32 .hold.glyph,
.keypos-38 .hold.glyph {
  translate: -26px 2px;
}

.shifted.mdi\:alpha-w-box {
  translate: 0px 8px;
}
.keypos-38 .shifted.mdi\:alpha-w-box,
.keypos-39 .shifted.mdi\:alpha-w-box {
  translate: 0px 20px;
}

.hold.mdi\:gesture-tap-hold {
  translate: 0px -8px;
}
.keypos-38 .hold.mdi\:gesture-tap-hold,
.keypos-39 .hold.mdi\:gesture-tap-hold {
  translate: 0px -20px;
}

.key .mdi\:toggle-switch ~ .mdi\:usb {
  translate: -22px 26px;
}
.key .mdi\:toggle-switch ~ .mdi\:bluetooth {
  translate: 22px -26px;
}
</style>
<g transform="translate(0, 0)" class="layer-sys">
<text x="0" y="0" class="label" id="sys">sys</text>
<g transform="translate(0, 0)">
<g transform="translate(50, 138) rotate(-17.0)" class="key keypos-0">
<rect rx="4" ry="4" x="-38" y="-38" width="77" height="77" class="key"/>
<text x="0" y="34" class="key hold">1</text>
<use href="#mdi:bluetooth-connect" xlink:href="#mdi:bluetooth-connect" x="-8" y="-34" height="16" width="16.0" class="key shifted glyph mdi:bluetooth-connect"/>
</g>
<g transform="translate(147, 81) rotate(-10.0)" class="key keypos-1">
<rect rx="4" ry="4" x="-38" y="-38" width="77" height="77" class="key"/>
<text x="0" y="34" class="key hold">2</text>
<use href="#mdi:bluetooth-connect" xlink:href="#mdi:bluetooth-connect" x="-8" y="-34" height="16" width="16.0" class="key shifted glyph mdi:bluetooth-connect"/>
</g>
<g transform="translate(243, 43) rotate(-5.0)" class="key keypos-2">
<rect rx="4" ry="4" x="-38" y="-38" width="77" height="77" class="key"/>
<text x="0" y="34" class="key hold">3</text>
<use href="#mdi:bluetooth-connect" xlink:href="#mdi:bluetooth-connect" x="-8" y="-34" height="16" width="16.0" class="key shifted glyph mdi:bluetooth-connect"/>
</g>
<g transform="translate(345, 62)" class="key keypos-3">
<rect rx="4" ry="4" x="-38" y="-38" width="77" height="77" class="key"/>
<text x="0" y="34" class="key hold">4</text>
<use href="#mdi:bluetooth-connect" xlink:href="#mdi:bluetooth-connect" x="-8" y="-34" height="16" width="16.0" class="key shifted glyph mdi:bluetooth-connect"/>
</g>
<g transform="translate(430, 75)" class="key keypos-4">
<rect rx="4" ry="4" x="-38" y="-38" width="77" height="77" class="key"/>
<use href="#mdi:bluetooth-off" xlink:href="#mdi:bluetooth-off" x="-11" y="-11" height="22" width="22.0" class="key tap glyph mdi:bluetooth-off"/>
</g>
<g transform="translate(774, 75)" class="key trans keypos-5">
<rect rx="4" ry="4" x="-38" y="-38" width="77" height="77" class="key trans"/>
<text x="0" y="0" class="key trans tap">▽</text>
</g>
<g transform="translate(858, 62)" class="key trans keypos-6">
<rect rx="4" ry="4" x="-38" y="-38" width="77" height="77" class="key trans"/>
<text x="0" y="0" class="key trans tap">▽</text>
</g>
<g transform="translate(961, 43) rotate(5.0)" class="key trans keypos-7">
<rect rx="4" ry="4" x="-38" y="-38" width="77" height="77" class="key trans"/>
<text x="0" y="0" class="key trans tap">▽</text>
</g>
<g transform="translate(1057, 81) rotate(10.0)" class="key trans keypos-8">
<rect rx="4" ry="4" x="-38" y="-38" width="77" height="77" class="key trans"/>
<text x="0" y="0" class="key trans tap">▽</text>
</g>
<g transform="translate(1154, 138) rotate(17.0)" class="key trans keypos-9">
<rect rx="4" ry="4" x="-38" y="-38" width="77" height="77" class="key trans"/>
<text x="0" y="0" class="key trans tap">▽</text>
</g>
<g transform="translate(73, 219) rotate(-17.0)" class="key trans keypos-10">
<rect rx="4" ry="4" x="-38" y="-38" width="77" height="77" class="key trans"/>
<text x="0" y="0" class="key trans tap">▽</text>
</g>
<g transform="translate(161, 164) rotate(-10.0)" class="key trans keypos-11">
<rect rx="4" ry="4" x="-38" y="-38" width="77" height="77" class="key trans"/>
<text x="0" y="0" class="key trans tap">▽</text>
</g>
<g transform="translate(250, 128) rotate(-5.0)" class="key trans keypos-12">
<rect rx="4" ry="4" x="-38" y="-38" width="77" height="77" class="key trans"/>
<text x="0" y="0" class="key trans tap">▽</text>
</g>
<g transform="translate(345, 146)" class="key trans keypos-13">
<rect rx="4" ry="4" x="-38" y="-38" width="77" height="77" class="key trans"/>
<text x="0" y="0" class="key trans tap">▽</text>
</g>
<g transform="translate(430, 160)" class="key keypos-14">
<rect rx="4" ry="4" x="-38" y="-38" width="77" height="77" class="key"/>
<use href="#mdi:progress-download" xlink:href="#mdi:progress-download" x="-11" y="-11" height="22" width="22.0" class="key tap glyph mdi:progress-download"/>
</g>
<g transform="translate(774, 160)" class="key keypos-15">
<rect rx="4" ry="4" x="-38" y="-38" width="77" height="77" class="key"/>
<use href="#mdi:progress-download" xlink:href="#mdi:progress-download" x="-11" y="-11" height="22" width="22.0" class="key tap glyph mdi:progress-download"/>
</g>
<g transform="translate(858, 146)" class="key trans keypos-16">
<rect rx="4" ry="4" x="-38" y="-38" width="77" height="77" class="key trans"/>
<text x="0" y="0" class="key trans tap">▽</text>
</g>
<g transform="translate(954, 128) rotate(5.0)" class="key trans keypos-17">
<rect rx="4" ry="4" x="-38" y="-38" width="77" height="77" class="key trans"/>
<text x="0" y="0" class="key trans tap">▽</text>
</g>
<g transform="translate(1043, 164) rotate(10.0)" class="key trans keypos-18">
<rect rx="4" ry="4" x="-38" y="-38" width="77" height="77" class="key trans"/>
<text x="0" y="0" class="key trans tap">▽</text>
</g>
<g transform="translate(1130, 219) rotate(17.0)" class="key trans keypos-19">
<rect rx="4" ry="4" x="-38" y="-38" width="77" height="77" class="key trans"/>
<text x="0" y="0" class="key trans tap">▽</text>
</g>
<g transform="translate(97, 300) rotate(-17.0)" class="key trans keypos-20">
<rect rx="4" ry="4" x="-38" y="-38" width="77" height="77" class="key trans"/>
<text x="0" y="0" class="key trans tap">▽</text>
</g>
<g transform="translate(175, 247) rotate(-10.0)" class="key trans keypos-21">
<rect rx="4" ry="4" x="-38" y="-38" width="77" height="77" class="key trans"/>
<text x="0" y="0" class="key trans tap">▽</text>
</g>
<g transform="translate(257, 212) rotate(-5.0)" class="key trans keypos-22">
<rect rx="4" ry="4" x="-38" y="-38" width="77" height="77" class="key trans"/>
<text x="0" y="0" class="key trans tap">▽</text>
</g>
<g transform="translate(345, 231)" class="key trans keypos-23">
<rect rx="4" ry="4" x="-38" y="-38" width="77" height="77" class="key trans"/>
<text x="0" y="0" class="key trans tap">▽</text>
</g>
<g transform="translate(430, 244)" class="key bootloader keypos-24">
<rect rx="4" ry="4" x="-38" y="-38" width="77" height="77" class="key bootloader"/>
<use href="#mdi:backup-restore" xlink:href="#mdi:backup-restore" x="-11" y="-11" height="22" width="22.0" class="key bootloader tap glyph mdi:backup-restore"/>
</g>
<g transform="translate(774, 244)" class="key bootloader keypos-25">
<rect rx="4" ry="4" x="-38" y="-38" width="77" height="77" class="key bootloader"/>
<use href="#mdi:backup-restore" xlink:href="#mdi:backup-restore" x="-11" y="-11" height="22" width="22.0" class="key bootloader tap glyph mdi:backup-restore"/>
</g>
<g transform="translate(858, 231)" class="key trans keypos-26">
<rect rx="4" ry="4" x="-38" y="-38" width="77" height="77" class="key trans"/>
<text x="0" y="0" class="key trans tap">▽</text>
</g>
<g transform="translate(947, 212) rotate(5.0)" class="key trans keypos-27">
<rect rx="4" ry="4" x="-38" y="-38" width="77" height="77" class="key trans"/>
<text x="0" y="0" class="key trans tap">▽</text>
</g>
<g transform="translate(1029, 247) rotate(10.0)" class="key trans keypos-28">
<rect rx="4" ry="4" x="-38" y="-38" width="77" height="77" class="key trans"/>
<text x="0" y="0" class="key trans tap">▽</text>
</g>
<g transform="translate(1107, 300) rotate(17.0)" class="key trans keypos-29">
<rect rx="4" ry="4" x="-38" y="-38" width="77" height="77" class="key trans"/>
<text x="0" y="0" class="key trans tap">▽</text>
</g>
<g transform="translate(356, 359) rotate(15.0)" class="key keypos-30">
<rect rx="4" ry="4" x="-38" y="-38" width="77" height="77" class="key"/>
<use href="#mdi:backspace" xlink:href="#mdi:backspace" x="-11" y="-11" height="22" width="22.0" class="key tap glyph mdi:backspace"/>
<use href="#mdi:backspace-reverse-outline" xlink:href="#mdi:backspace-reverse-outline" x="-8" y="-34" height="16" width="16.0" class="key shifted glyph mdi:backspace-reverse-outline"/>
</g>
<g transform="translate(442, 396) rotate(30.0)" class="key trans keypos-31">
<rect rx="4" ry="4" x="-38" y="-38" width="77" height="77" class="key trans"/>
<text x="0" y="0" class="key trans tap">▽</text>
</g>
<g transform="translate(515, 456) rotate(45.0)" class="key held keypos-32">
<rect rx="4" ry="4" x="-38" y="-38" width="77" height="77" class="key held"/>
</g>
<g transform="translate(688, 456) rotate(-45.0)" class="key held keypos-33">
<rect rx="4" ry="4" x="-38" y="-38" width="77" height="77" class="key held"/>
</g>
<g transform="translate(762, 396) rotate(-30.0)" class="key trans keypos-34">
<rect rx="4" ry="4" x="-38" y="-38" width="77" height="77" class="key trans"/>
<text x="0" y="0" class="key trans tap">▽</text>
</g>
<g transform="translate(848, 359) rotate(-15.0)" class="key keypos-35">
<rect rx="4" ry="4" x="-38" y="-38" width="77" height="77" class="key"/>
<use href="#mdi:mouse" xlink:href="#mdi:mouse" x="-11" y="-11" height="22" width="22.0" class="key tap glyph mdi:mouse"/>
<use href="#mdi:alpha-w-box" xlink:href="#mdi:alpha-w-box" x="-8" y="-34" height="16" width="16.0" class="key shifted glyph mdi:alpha-w-box"/>
</g>
</g>
</g>
</svg>
